<svg version="1.1" width="400" height="400" xmlns="http://www.w3.org/2000/svg">
<rect x="0" y="0" width="400" height="400" fill="#ffffff" />
<g transform="scale(0.390625, 0.390625)">
<path d="M 982 1039 L 980 -16 L -16 582 Z" fill="#000000" fill-opacity="0.501961" />
<path d="M 46 1039 L 1039 85 L 40 84 Z" fill="#000013" fill-opacity="0.501961" />
<path d="M 977 938 L 984 153 L 48 937 Z" fill="#00022a" fill-opacity="0.501961" />
<path d="M 675 468 L 333 467 L 468 401 Z" fill="#ffffff" fill-opacity="0.501961" />
<path d="M 41 610 L 774 937 L 44 938 Z" fill="#001c33" fill-opacity="0.501961" />
<path d="M 33 85 L 807 84 L 381 344 Z" fill="#001736" fill-opacity="0.501961" />
<path d="M 1021 904 L 979 1038 L 701 962 Z" fill="#ffffff" fill-opacity="0.501961" />
<path d="M 42 580 L 249 338 L 42 110 Z" fill="#001938" fill-opacity="0.501961" />
<path d="M 1004 -16 L 1037 150 L 750 39 Z" fill="#ffffff" fill-opacity="0.501961" />
<path d="M 46 1039 L -11 860 L 140 952 Z" fill="#ffffff" fill-opacity="0.501961" />
<path d="M 382 340 L 168 218 L 278 400 Z" fill="#ffffff" fill-opacity="0.501961" />
<path d="M 649 427 L 359 426 L 465 477 Z" fill="#ffffff" fill-opacity="0.501961" />
<path d="M 181 396 L 375 341 L 166 467 Z" fill="#ffffff" fill-opacity="0.501961" />
<path d="M 1039 193 L 1016 -16 L 856 23 Z" fill="#ffffff" fill-opacity="0.501961" />
<path d="M 1009 937 L 658 940 L 991 1039 Z" fill="#ffffff" fill-opacity="0.501961" />
<path d="M 297 340 L 213 292 L 177 411 Z" fill="#001431" fill-opacity="0.501961" />
<path d="M 836 944 L 958 92 L 426 84 Z" fill="#29506a" fill-opacity="0.501961" />
<path d="M 422 938 L 37 534 L 377 351 Z" fill="#2a516e" fill-opacity="0.501961" />
<path d="M -8 62 L 139 46 L 37 145 Z" fill="#ffffff" fill-opacity="0.501961" />
<path d="M 41 741 L -16 527 L 42 527 Z" fill="#ffffff" fill-opacity="0.501961" />
<path d="M 929 938 L 69 923 L 782 301 Z" fill="#2e4c60" fill-opacity="0.501961" />
<path d="M 46 1039 L 38 899 L 143 958 Z" fill="#ffffff" fill-opacity="0.501961" />
<path d="M 1039 825 L 978 1039 L 878 990 Z" fill="#ffffff" fill-opacity="0.501961" />
<path d="M 64 105 L 44 170 L 270 262 Z" fill="#002642" fill-opacity="0.501961" />
<path d="M 359 329 L 171 217 L 172 278 Z" fill="#ffffff" fill-opacity="0.501961" />
<path d="M 1039 85 L 794 83 L 977 -16 Z" fill="#ffffff" fill-opacity="0.501961" />
<path d="M 450 138 L 594 426 L 355 425 Z" fill="#264b67" fill-opacity="0.501961" />
<path d="M 598 471 L 593 419 L 403 463 Z" fill="#ffffff" fill-opacity="0.501961" />
<path d="M 323 330 L 170 415 L 189 460 Z" fill="#ffffff" fill-opacity="0.501961" />
<path d="M 36 159 L 90 70 L -15 85 Z" fill="#ffffff" fill-opacity="0.501961" />
<path d="M 48 452 L 770 482 L 92 933 Z" fill="#324b63" fill-opacity="0.501961" />
<path d="M 34 864 L 42 1039 L 114 987 Z" fill="#ffffff" fill-opacity="0.501961" />
<path d="M 385 426 L 383 473 L 557 426 Z" fill="#ffffff" fill-opacity="0.501961" />
<path d="M 1002 -16 L 859 39 L 1039 165 Z" fill="#ffffff" fill-opacity="0.501961" />
<path d="M 41 537 L -16 532 L 41 726 Z" fill="#ffffff" fill-opacity="0.501961" />
<path d="M 384 341 L 183 226 L 324 372 Z" fill="#ffffff" fill-opacity="0.501961" />
<path d="M 44 513 L 276 330 L 45 190 Z" fill="#2a465c" fill-opacity="0.501961" />
<path d="M 985 940 L 982 1039 L 755 938 Z" fill="#ffffff" fill-opacity="0.501961" />
</g>
</svg>
