<svg version="1.1" width="400" height="400" xmlns="http://www.w3.org/2000/svg">
<rect x="0" y="0" width="400" height="400" fill="#ffffff" />
<g transform="scale(1.5625, 1.5625)">
<path d="M -13 100 L 263 -16 L 152 271 Z" fill="#68876d" fill-opacity="0.501961" />
<path d="M 212 20 L 243 113 L 132 13 Z" fill="#0061d1" fill-opacity="0.501961" />
<path d="M 183 137 L 245 88 L 107 96 Z" fill="#005dd3" fill-opacity="0.501961" />
<path d="M 115 57 L 136 118 L 160 10 Z" fill="#003bbd" fill-opacity="0.501961" />
<path d="M 107 236 L 98 66 L 3 98 Z" fill="#ff9f54" fill-opacity="0.501961" />
<path d="M 220 87 L 152 108 L 172 31 Z" fill="#ffffff" fill-opacity="0.501961" />
<path d="M 161 230 L 185 182 L 148 138 Z" fill="#72ca00" fill-opacity="0.501961" />
<path d="M 45 -8 L 115 142 L 120 65 Z" fill="#ffffff" fill-opacity="0.501961" />
<path d="M 142 214 L 2 147 L 166 171 Z" fill="#fffffa" fill-opacity="0.501961" />
<path d="M 80 180 L 96 233 L 115 138 Z" fill="#41bf00" fill-opacity="0.501961" />
<path d="M 271 78 L 261 -16 L 176 -2 Z" fill="#ffffff" fill-opacity="0.501961" />
<path d="M 131 241 L 165 212 L 85 208 Z" fill="#6bc800" fill-opacity="0.501961" />
<path d="M 181 126 L 231 37 L 231 100 Z" fill="#0053ae" fill-opacity="0.501961" />
<path d="M 50 140 L 90 112 L 46 90 Z" fill="#ffffff" fill-opacity="0.501961" />
<path d="M 228 136 L 161 128 L 211 228 Z" fill="#ffffff" fill-opacity="0.501961" />
<path d="M 71 75 L 105 100 L 89 142 Z" fill="#fe2700" fill-opacity="0.501961" />
<path d="M 116 57 L 181 124 L 151 136 Z" fill="#0059b5" fill-opacity="0.501961" />
<path d="M 126 133 L 179 152 L 82 166 Z" fill="#74c600" fill-opacity="0.501961" />
<path d="M 212 32 L 118 58 L 154 14 Z" fill="#005eb2" fill-opacity="0.501961" />
<path d="M 64 77 L 40 75 L 16 139 Z" fill="#ff1c00" fill-opacity="0.501961" />
<path d="M 181 115 L 141 63 L 206 47 Z" fill="#ffffff" fill-opacity="0.501961" />
<path d="M 20 120 L 82 148 L 45 158 Z" fill="#ff2500" fill-opacity="0.501961" />
<path d="M -12 141 L 24 124 L 11 47 Z" fill="#ffffff" fill-opacity="0.501961" />
<path d="M 271 252 L 98 265 L 155 226 Z" fill="#ffffff" fill-opacity="0.501961" />
<path d="M 83 149 L 126 103 L 145 123 Z" fill="#ffffff" fill-opacity="0.501961" />
<path d="M 232 52 L 218 114 L 189 6 Z" fill="#006ab9" fill-opacity="0.501961" />
<path d="M 121 103 L 214 106 L 203 135 Z" fill="#0067b6" fill-opacity="0.501961" />
<path d="M 203 26 L 240 -16 L 271 64 Z" fill="#ffffff" fill-opacity="0.501961" />
<path d="M 147 17 L 145 104 L 113 106 Z" fill="#0071bb" fill-opacity="0.501961" />
<path d="M 84 99 L 68 138 L 35 106 Z" fill="#ffffff" fill-opacity="0.501961" />
<path d="M 55 213 L 92 156 L 21 160 Z" fill="#ffffff" fill-opacity="0.501961" />
<path d="M 110 43 L 116 111 L 50 42 Z" fill="#ffffff" fill-opacity="0.501961" />
<path d="M 140 74 L 167 105 L 170 41 Z" fill="#ffffff" fill-opacity="0.501961" />
<path d="M 72 154 L 111 123 L 47 142 Z" fill="#f93d04" fill-opacity="0.501961" />
<path d="M 133 153 L 101 188 L 162 195 Z" fill="#ffffff" fill-opacity="0.501961" />
<path d="M 168 40 L 191 104 L 208 62 Z" fill="#ffffff" fill-opacity="0.501961" />
<path d="M 190 127 L 165 132 L 209 219 Z" fill="#ffffff" fill-opacity="0.501961" />
<path d="M 86 164 L 127 226 L 90 225 Z" fill="#7ec328" fill-opacity="0.501961" />
<path d="M 45 130 L 23 90 L 22 137 Z" fill="#f94106" fill-opacity="0.501961" />
<path d="M 86 89 L 16 99 L 76 73 Z" fill="#fd4105" fill-opacity="0.501961" />
<path d="M 150 219 L 168 141 L 174 230 Z" fill="#81c21c" fill-opacity="0.501961" />
<path d="M 201 39 L 112 53 L 201 11 Z" fill="#006dba" fill-opacity="0.501961" />
<path d="M -16 84 L -4 120 L 42 79 Z" fill="#ffffff" fill-opacity="0.501961" />
<path d="M 95 140 L 78 193 L 121 158 Z" fill="#79c028" fill-opacity="0.501961" />
<path d="M 210 67 L 233 42 L 189 40 Z" fill="#0060b1" fill-opacity="0.501961" />
<path d="M 147 51 L 139 107 L 112 43 Z" fill="#0072bb" fill-opacity="0.501961" />
<path d="M 144 120 L 98 104 L 109 142 Z" fill="#ffffff" fill-opacity="0.501961" />
<path d="M 171 -16 L -16 77 L 95 71 Z" fill="#ffffff" fill-opacity="0.501961" />
<path d="M 86 120 L 65 91 L 38 125 Z" fill="#ffffff" fill-opacity="0.501961" />
<path d="M 53 150 L 61 271 L 91 211 Z" fill="#ffffff" fill-opacity="0.501961" />
<path d="M 104 171 L 123 213 L 157 193 Z" fill="#ffffff" fill-opacity="0.501961" />
<path d="M 174 224 L 58 271 L 202 267 Z" fill="#ffffff" fill-opacity="0.501961" />
<path d="M 173 166 L 244 231 L 267 70 Z" fill="#ffffff" fill-opacity="0.501961" />
<path d="M 271 0 L 221 42 L 179 -16 Z" fill="#ffffff" fill-opacity="0.501961" />
<path d="M 112 147 L 128 129 L 176 175 Z" fill="#82c421" fill-opacity="0.501961" />
<path d="M 161 44 L 151 98 L 194 47 Z" fill="#ffffff" fill-opacity="0.501961" />
<path d="M 131 100 L 183 106 L 159 137 Z" fill="#0070b8" fill-opacity="0.501961" />
<path d="M 139 -2 L 192 19 L 163 19 Z" fill="#ffffff" fill-opacity="0.501961" />
<path d="M 125 123 L 158 145 L 132 109 Z" fill="#ffffff" fill-opacity="0.501961" />
<path d="M 201 134 L 220 78 L 169 119 Z" fill="#0071ba" fill-opacity="0.501961" />
<path d="M 151 52 L 201 95 L 170 106 Z" fill="#ffffff" fill-opacity="0.501961" />
<path d="M 271 117 L 230 82 L 232 58 Z" fill="#ffffff" fill-opacity="0.501961" />
<path d="M -13 81 L 12 165 L 23 108 Z" fill="#ffffff" fill-opacity="0.501961" />
<path d="M 76 193 L 75 178 L 84 179 Z" fill="#319700" fill-opacity="0.501961" />
<path d="M 105 95 L 69 89 L 92 119 Z" fill="#ed5216" fill-opacity="0.501961" />
<path d="M 63 219 L 129 256 L 122 232 Z" fill="#ffffff" fill-opacity="0.501961" />
<path d="M 163 144 L 156 202 L 187 192 Z" fill="#83bf2f" fill-opacity="0.501961" />
<path d="M 204 14 L 158 24 L 202 53 Z" fill="#006eb6" fill-opacity="0.501961" />
<path d="M 82 124 L 40 113 L 57 137 Z" fill="#ffffff" fill-opacity="0.501961" />
<path d="M 102 135 L 95 93 L 73 140 Z" fill="#f15621" fill-opacity="0.501961" />
<path d="M 112 95 L 195 126 L 134 81 Z" fill="#0171b9" fill-opacity="0.501961" />
<path d="M 44 221 L -11 112 L 39 147 Z" fill="#ffffff" fill-opacity="0.501961" />
<path d="M 17 98 L 39 85 L 40 139 Z" fill="#ec5926" fill-opacity="0.501961" />
<path d="M 131 214 L 115 160 L 151 164 Z" fill="#ffffff" fill-opacity="0.501961" />
<path d="M 120 230 L 163 225 L 155 200 Z" fill="#82c21f" fill-opacity="0.501961" />
<path d="M 36 88 L 77 96 L 44 70 Z" fill="#ee5a20" fill-opacity="0.501961" />
<path d="M 53 154 L 72 153 L 29 196 Z" fill="#ffffff" fill-opacity="0.501961" />
<path d="M 103 143 L 111 88 L 124 137 Z" fill="#ffffff" fill-opacity="0.501961" />
<path d="M 121 66 L 23 0 L 109 102 Z" fill="#ffffff" fill-opacity="0.501961" />
<path d="M 238 56 L 232 43 L 221 59 Z" fill="#0058b6" fill-opacity="0.501961" />
<path d="M 67 77 L -16 55 L 185 -16 Z" fill="#ffffff" fill-opacity="0.501961" />
<path d="M 143 138 L 187 129 L 240 159 Z" fill="#ffffff" fill-opacity="0.501961" />
<path d="M 209 70 L 191 130 L 238 89 Z" fill="#0073b6" fill-opacity="0.501961" />
</g>
</svg>
