<svg version="1.1" width="400" height="401" xmlns="http://www.w3.org/2000/svg">
<rect x="0" y="0" width="400" height="401" fill="#ffffff" />
<g transform="scale(1, 1)">
<path d="M -16 385 L 399 388 L 78 62 Z" fill="#003e71" fill-opacity="0.501961" />
<path d="M -16 221 L 331 107 L 139 416 Z" fill="#006489" fill-opacity="0.501961" />
<path d="M 277 369 L 415 358 L 198 -16 Z" fill="#ffffff" fill-opacity="0.501961" />
<path d="M 2 176 L 239 129 L 119 -8 Z" fill="#ffffff" fill-opacity="0.501961" />
<path d="M 282 -5 L 228 131 L 311 20 Z" fill="#232522" fill-opacity="0.501961" />
<path d="M 378 57 L 295 137 L 398 81 Z" fill="#130b07" fill-opacity="0.501961" />
<path d="M 43 162 L 342 390 L -16 325 Z" fill="#0b80a6" fill-opacity="0.501961" />
<path d="M -16 290 L 73 399 L -16 398 Z" fill="#ffffff" fill-opacity="0.501961" />
<path d="M 262 352 L 224 158 L 83 155 Z" fill="#136781" fill-opacity="0.501961" />
<path d="M 299 226 L 359 311 L 212 375 Z" fill="#ffffff" fill-opacity="0.501961" />
<path d="M 16 43 L 237 90 L 23 188 Z" fill="#ffffff" fill-opacity="0.501961" />
<path d="M 25 351 L 147 405 L 262 324 Z" fill="#06698b" fill-opacity="0.501961" />
<path d="M 267 76 L 225 118 L 212 178 Z" fill="#2a1d17" fill-opacity="0.501961" />
<path d="M 265 143 L 325 124 L 220 196 Z" fill="#3d221b" fill-opacity="0.501961" />
<path d="M 236 187 L 293 367 L 415 360 Z" fill="#ffffff" fill-opacity="0.501961" />
<path d="M 210 187 L 355 84 L 295 25 Z" fill="#ffffff" fill-opacity="0.501961" />
<path d="M 90 391 L -16 319 L -16 402 Z" fill="#ffffff" fill-opacity="0.501961" />
<path d="M 206 166 L -16 97 L 269 38 Z" fill="#ffffff" fill-opacity="0.501961" />
<path d="M 5 240 L 47 178 L 9 305 Z" fill="#11485d" fill-opacity="0.501961" />
<path d="M 137 262 L 170 150 L 54 173 Z" fill="#1394c5" fill-opacity="0.501961" />
<path d="M 210 219 L 229 121 L 160 260 Z" fill="#513730" fill-opacity="0.501961" />
<path d="M 220 309 L 291 346 L 280 365 Z" fill="#004f80" fill-opacity="0.501961" />
<path d="M 256 294 L 209 369 L 245 207 Z" fill="#0b4e5f" fill-opacity="0.501961" />
<path d="M 284 385 L 370 381 L 414 416 Z" fill="#ffffff" fill-opacity="0.501961" />
<path d="M 349 365 L 330 123 L 229 192 Z" fill="#ffffff" fill-opacity="0.501961" />
<path d="M 172 405 L 250 330 L 210 399 Z" fill="#ffffff" fill-opacity="0.501961" />
<path d="M -15 282 L -16 224 L 51 158 Z" fill="#ffffff" fill-opacity="0.501961" />
<path d="M 216 224 L 18 343 L 140 384 Z" fill="#1d93bf" fill-opacity="0.501961" />
<path d="M 233 391 L 228 365 L 326 380 Z" fill="#00739d" fill-opacity="0.501961" />
<path d="M 1 266 L 28 405 L -16 373 Z" fill="#ffffff" fill-opacity="0.501961" />
<path d="M 392 389 L 389 363 L 307 368 Z" fill="#007295" fill-opacity="0.501961" />
<path d="M 401 374 L 255 234 L 256 326 Z" fill="#ffffff" fill-opacity="0.501961" />
<path d="M 120 416 L 117 394 L 196 392 Z" fill="#ffffff" fill-opacity="0.501961" />
<path d="M 141 397 L 201 377 L 188 357 Z" fill="#10333b" fill-opacity="0.501961" />
<path d="M 266 152 L 221 205 L 188 204 Z" fill="#473834" fill-opacity="0.501961" />
<path d="M 311 10 L 371 72 L 226 178 Z" fill="#ffffff" fill-opacity="0.501961" />
<path d="M 271 67 L 302 11 L 282 1 Z" fill="#363837" fill-opacity="0.501961" />
<path d="M 82 5 L 134 115 L -10 225 Z" fill="#ffffff" fill-opacity="0.501961" />
<path d="M 325 104 L 286 151 L 381 84 Z" fill="#625d5a" fill-opacity="0.501961" />
<path d="M 264 -16 L 243 93 L 279 20 Z" fill="#ffffff" fill-opacity="0.501961" />
<path d="M 155 154 L 27 199 L 81 159 Z" fill="#185a73" fill-opacity="0.501961" />
<path d="M 41 361 L 121 394 L 11 237 Z" fill="#1882a9" fill-opacity="0.501961" />
<path d="M 411 357 L 279 369 L 336 272 Z" fill="#ffffff" fill-opacity="0.501961" />
<path d="M 233 324 L 243 331 L 215 363 Z" fill="#0f0000" fill-opacity="0.501961" />
<path d="M 123 353 L 207 294 L 196 331 Z" fill="#154664" fill-opacity="0.501961" />
<path d="M 149 267 L 60 298 L 98 269 Z" fill="#153142" fill-opacity="0.501961" />
<path d="M 243 211 L 180 156 L 253 270 Z" fill="#275763" fill-opacity="0.501961" />
<path d="M -16 -10 L 45 152 L 204 152 Z" fill="#ffffff" fill-opacity="0.501961" />
<path d="M 227 295 L 225 341 L 237 303 Z" fill="#2bd8ff" fill-opacity="0.501961" />
<path d="M 209 374 L 264 351 L 241 337 Z" fill="#ffffff" fill-opacity="0.501961" />
<path d="M 247 234 L 195 282 L 225 271 Z" fill="#27c6f5" fill-opacity="0.501961" />
<path d="M 295 27 L 263 84 L 397 56 Z" fill="#ffffff" fill-opacity="0.501961" />
<path d="M 218 274 L 229 278 L 244 250 Z" fill="#0e0000" fill-opacity="0.501961" />
<path d="M 380 58 L 357 86 L 392 72 Z" fill="#37393b" fill-opacity="0.501961" />
<path d="M 173 189 L 162 247 L 178 218 Z" fill="#20c9ff" fill-opacity="0.501961" />
<path d="M -16 355 L 157 403 L -16 403 Z" fill="#ffffff" fill-opacity="0.501961" />
<path d="M 204 354 L 183 378 L 203 325 Z" fill="#30d7ff" fill-opacity="0.501961" />
<path d="M 334 118 L 382 86 L 401 113 Z" fill="#ffffff" fill-opacity="0.501961" />
<path d="M 207 376 L 176 387 L 257 401 Z" fill="#ffffff" fill-opacity="0.501961" />
<path d="M 274 70 L 279 24 L 238 103 Z" fill="#4d4e4c" fill-opacity="0.501961" />
<path d="M 315 382 L 344 416 L 372 383 Z" fill="#ffffff" fill-opacity="0.501961" />
<path d="M 323 125 L 333 101 L 288 134 Z" fill="#6d605e" fill-opacity="0.501961" />
<path d="M 57 245 L 51 219 L 44 227 Z" fill="#190000" fill-opacity="0.501961" />
<path d="M 102 136 L 206 163 L 246 87 Z" fill="#ffffff" fill-opacity="0.501961" />
<path d="M 122 159 L 140 153 L 111 153 Z" fill="#000000" fill-opacity="0.501961" />
<path d="M 235 330 L 234 296 L 260 347 Z" fill="#284c63" fill-opacity="0.501961" />
<path d="M 54 175 L 172 161 L 54 248 Z" fill="#2798c4" fill-opacity="0.501961" />
<path d="M 247 289 L 240 311 L 237 270 Z" fill="#2bd9fc" fill-opacity="0.501961" />
<path d="M 77 416 L -16 355 L -9 295 Z" fill="#ffffff" fill-opacity="0.501961" />
<path d="M 76 381 L 62 366 L 126 351 Z" fill="#2c4d5f" fill-opacity="0.501961" />
<path d="M 245 323 L 253 296 L 244 271 Z" fill="#1a1213" fill-opacity="0.501961" />
<path d="M 16 149 L -16 202 L 1 302 Z" fill="#ffffff" fill-opacity="0.501961" />
<path d="M 267 375 L 289 358 L 247 374 Z" fill="#371e23" fill-opacity="0.501961" />
<path d="M 29 295 L 47 278 L 78 295 Z" fill="#233951" fill-opacity="0.501961" />
<path d="M 142 167 L 163 151 L 150 151 Z" fill="#12151d" fill-opacity="0.501961" />
<path d="M 215 203 L 239 217 L 187 226 Z" fill="#239ebd" fill-opacity="0.501961" />
<path d="M 111 286 L 29 302 L 71 306 Z" fill="#26c5f3" fill-opacity="0.501961" />
<path d="M 65 253 L 64 235 L 75 259 Z" fill="#0e0405" fill-opacity="0.501961" />
<path d="M 238 137 L 214 177 L 228 176 Z" fill="#ffffff" fill-opacity="0.501961" />
<path d="M 197 378 L 210 313 L 216 363 Z" fill="#245866" fill-opacity="0.501961" />
<path d="M 44 359 L 114 345 L 78 363 Z" fill="#31d0ff" fill-opacity="0.501961" />
<path d="M 133 272 L 164 256 L 160 239 Z" fill="#1b2d3c" fill-opacity="0.501961" />
<path d="M 289 353 L 248 245 L 415 370 Z" fill="#ffffff" fill-opacity="0.501961" />
<path d="M 159 162 L 129 200 L 123 252 Z" fill="#2cbef1" fill-opacity="0.501961" />
<path d="M 17 223 L 46 195 L 26 200 Z" fill="#263a49" fill-opacity="0.501961" />
<path d="M 231 144 L 238 102 L 258 90 Z" fill="#5f6867" fill-opacity="0.501961" />
<path d="M 328 374 L 350 380 L 313 382 Z" fill="#003e54" fill-opacity="0.501961" />
<path d="M 247 319 L 276 239 L 295 349 Z" fill="#ffffff" fill-opacity="0.501961" />
<path d="M 305 21 L 278 6 L 275 41 Z" fill="#555655" fill-opacity="0.501961" />
<path d="M 365 368 L 302 373 L 339 380 Z" fill="#12c1f6" fill-opacity="0.501961" />
<path d="M 245 186 L 258 285 L 335 117 Z" fill="#fffefe" fill-opacity="0.501961" />
<path d="M 168 162 L 179 181 L 175 208 Z" fill="#26cdff" fill-opacity="0.501961" />
<path d="M 186 356 L 196 347 L 196 320 Z" fill="#12131c" fill-opacity="0.501961" />
<path d="M 183 164 L 192 193 L 184 207 Z" fill="#2bdbfb" fill-opacity="0.501961" />
<path d="M 50 369 L 12 325 L 4 259 Z" fill="#2d708f" fill-opacity="0.501961" />
<path d="M 128 189 L 126 210 L 141 174 Z" fill="#181a2d" fill-opacity="0.501961" />
<path d="M 245 388 L 226 377 L 285 374 Z" fill="#24c5f7" fill-opacity="0.501961" />
<path d="M 107 322 L 69 335 L 28 326 Z" fill="#26ccfb" fill-opacity="0.501961" />
<path d="M 106 243 L 112 202 L 101 223 Z" fill="#1c303f" fill-opacity="0.501961" />
<path d="M 238 168 L 206 205 L 281 156 Z" fill="#625e5e" fill-opacity="0.501961" />
<path d="M 95 190 L 104 177 L 94 206 Z" fill="#13111d" fill-opacity="0.501961" />
<path d="M 293 30 L 263 84 L 371 74 Z" fill="#ffffff" fill-opacity="0.501961" />
<path d="M 195 312 L 127 358 L 187 363 Z" fill="#298bba" fill-opacity="0.501961" />
<path d="M 96 246 L 119 162 L 95 201 Z" fill="#2ac3fc" fill-opacity="0.501961" />
<path d="M 394 78 L 373 84 L 390 89 Z" fill="#303133" fill-opacity="0.501961" />
<path d="M 243 391 L 257 386 L 227 384 Z" fill="#1e3646" fill-opacity="0.501961" />
<path d="M 182 390 L 189 411 L 115 397 Z" fill="#ffffff" fill-opacity="0.501961" />
<path d="M 369 379 L 385 391 L 394 374 Z" fill="#2b596f" fill-opacity="0.501961" />
<path d="M 138 382 L 174 382 L 167 391 Z" fill="#0c1618" fill-opacity="0.501961" />
<path d="M 18 228 L 57 278 L 28 257 Z" fill="#28c4ef" fill-opacity="0.501961" />
<path d="M 190 238 L 179 201 L 171 249 Z" fill="#2c2a30" fill-opacity="0.501961" />
<path d="M 131 302 L 93 306 L 157 281 Z" fill="#26d2ff" fill-opacity="0.501961" />
<path d="M 198 200 L 179 235 L 186 204 Z" fill="#9f928f" fill-opacity="0.501961" />
<path d="M 163 229 L 151 243 L 163 201 Z" fill="#28d0ef" fill-opacity="0.501961" />
<path d="M 122 252 L 120 225 L 115 249 Z" fill="#160f1e" fill-opacity="0.501961" />
<path d="M 196 254 L 133 289 L 169 281 Z" fill="#29bfff" fill-opacity="0.501961" />
<path d="M 195 279 L 158 300 L 179 295 Z" fill="#18212e" fill-opacity="0.501961" />
<path d="M 214 352 L 213 334 L 201 368 Z" fill="#3dd1e8" fill-opacity="0.501961" />
<path d="M 90 372 L 81 380 L 119 392 Z" fill="#33455a" fill-opacity="0.501961" />
<path d="M 49 262 L 72 272 L 33 236 Z" fill="#2acdff" fill-opacity="0.501961" />
<path d="M 204 -3 L 266 -16 L 324 7 Z" fill="#ffffff" fill-opacity="0.501961" />
<path d="M 209 167 L 198 188 L 178 158 Z" fill="#193d54" fill-opacity="0.501961" />
<path d="M 74 207 L 84 188 L 77 228 Z" fill="#1c2b3d" fill-opacity="0.501961" />
<path d="M 224 287 L 232 311 L 231 274 Z" fill="#36c5f9" fill-opacity="0.501961" />
<path d="M 32 245 L 66 274 L 46 266 Z" fill="#182537" fill-opacity="0.501961" />
<path d="M 6 289 L 13 353 L -16 301 Z" fill="#ffffff" fill-opacity="0.501961" />
<path d="M 229 228 L 176 248 L 201 228 Z" fill="#3ccaf3" fill-opacity="0.501961" />
<path d="M 46 273 L 28 263 L 20 245 Z" fill="#162734" fill-opacity="0.501961" />
<path d="M 252 102 L 257 75 L 233 123 Z" fill="#a9aca8" fill-opacity="0.501961" />
<path d="M 27 303 L 51 309 L 37 310 Z" fill="#0c0007" fill-opacity="0.501961" />
<path d="M 109 216 L 110 254 L 127 184 Z" fill="#2ccffb" fill-opacity="0.501961" />
<path d="M 79 228 L 87 198 L 93 262 Z" fill="#2cc3f5" fill-opacity="0.501961" />
<path d="M 66 231 L 64 201 L 60 219 Z" fill="#1e151f" fill-opacity="0.501961" />
<path d="M 146 293 L 207 252 L 182 281 Z" fill="#1f4d68" fill-opacity="0.501961" />
<path d="M 6 270 L 7 258 L 24 287 Z" fill="#082228" fill-opacity="0.501961" />
<path d="M 211 258 L 159 291 L 191 282 Z" fill="#2dc9fb" fill-opacity="0.501961" />
<path d="M 132 325 L 97 344 L 56 342 Z" fill="#26c3fc" fill-opacity="0.501961" />
<path d="M 84 317 L 132 303 L 109 318 Z" fill="#173e56" fill-opacity="0.501961" />
<path d="M 64 343 L 30 336 L 98 331 Z" fill="#16506f" fill-opacity="0.501961" />
<path d="M 64 249 L 59 188 L 52 219 Z" fill="#2bcfff" fill-opacity="0.501961" />
<path d="M 27 340 L 73 339 L 43 348 Z" fill="#2bd2ff" fill-opacity="0.501961" />
<path d="M 159 174 L 142 196 L 139 223 Z" fill="#224560" fill-opacity="0.501961" />
<path d="M 153 383 L 134 376 L 173 377 Z" fill="#2dddf4" fill-opacity="0.501961" />
<path d="M 136 324 L 119 338 L 149 325 Z" fill="#122438" fill-opacity="0.501961" />
<path d="M 69 233 L 67 199 L 84 174 Z" fill="#2ccbf6" fill-opacity="0.501961" />
<path d="M 153 270 L 139 284 L 171 266 Z" fill="#19121c" fill-opacity="0.501961" />
<path d="M 22 309 L 76 314 L 42 320 Z" fill="#20c8f8" fill-opacity="0.501961" />
<path d="M 196 195 L 217 150 L 218 172 Z" fill="#95837f" fill-opacity="0.501961" />
<path d="M 119 194 L 124 171 L 106 204 Z" fill="#1e2e48" fill-opacity="0.501961" />
<path d="M 281 341 L 238 337 L 245 320 Z" fill="#317aa4" fill-opacity="0.501961" />
<path d="M 204 335 L 207 300 L 198 308 Z" fill="#19cbfb" fill-opacity="0.501961" />
<path d="M 11 241 L 39 274 L 22 269 Z" fill="#3acaf6" fill-opacity="0.501961" />
<path d="M 225 288 L 164 312 L 224 266 Z" fill="#21516d" fill-opacity="0.501961" />
<path d="M 123 272 L 141 212 L 120 246 Z" fill="#29b4f0" fill-opacity="0.501961" />
<path d="M 253 73 L 265 -16 L 278 20 Z" fill="#ffffff" fill-opacity="0.501961" />
<path d="M 130 311 L 115 327 L 152 307 Z" fill="#1b3b51" fill-opacity="0.501961" />
<path d="M 144 279 L 118 280 L 169 259 Z" fill="#2bc6f6" fill-opacity="0.501961" />
<path d="M 283 346 L 281 361 L 246 328 Z" fill="#2bb1f2" fill-opacity="0.501961" />
<path d="M 76 321 L 48 319 L 65 325 Z" fill="#0c182a" fill-opacity="0.501961" />
<path d="M 115 281 L 76 261 L 109 267 Z" fill="#112d40" fill-opacity="0.501961" />
<path d="M 224 375 L 226 383 L 230 367 Z" fill="#020a0e" fill-opacity="0.501961" />
<path d="M 342 372 L 371 369 L 391 382 Z" fill="#1cc6f1" fill-opacity="0.501961" />
<path d="M 146 204 L 146 231 L 165 177 Z" fill="#2ecbf9" fill-opacity="0.501961" />
<path d="M 51 177 L 97 156 L 78 178 Z" fill="#28445a" fill-opacity="0.501961" />
<path d="M 58 346 L 40 353 L 80 351 Z" fill="#23324b" fill-opacity="0.501961" />
<path d="M 129 347 L 96 349 L 160 322 Z" fill="#2cc4f6" fill-opacity="0.501961" />
<path d="M 129 348 L 183 314 L 149 353 Z" fill="#183e54" fill-opacity="0.501961" />
<path d="M 140 225 L 136 245 L 134 235 Z" fill="#1d0712" fill-opacity="0.501961" />
<path d="M 186 246 L 177 260 L 211 238 Z" fill="#3a3242" fill-opacity="0.501961" />
<path d="M 285 136 L 234 172 L 274 66 Z" fill="#fcfeff" fill-opacity="0.501961" />
<path d="M -12 230 L 40 179 L 2 245 Z" fill="#fefeff" fill-opacity="0.501961" />
<path d="M 90 278 L 71 261 L 106 278 Z" fill="#2fc4eb" fill-opacity="0.501961" />
<path d="M 44 248 L 62 259 L 37 229 Z" fill="#1b2a3d" fill-opacity="0.501961" />
<path d="M 35 226 L 31 239 L 26 214 Z" fill="#35cff0" fill-opacity="0.501961" />
<path d="M 309 117 L 338 115 L 289 140 Z" fill="#757878" fill-opacity="0.501961" />
<path d="M 204 296 L 213 318 L 210 291 Z" fill="#0c1724" fill-opacity="0.501961" />
<path d="M 284 39 L 268 60 L 281 28 Z" fill="#a5a7a5" fill-opacity="0.501961" />
<path d="M 108 387 L 120 393 L 136 391 Z" fill="#140c11" fill-opacity="0.501961" />
<path d="M 133 309 L 86 321 L 112 322 Z" fill="#29c4ed" fill-opacity="0.501961" />
<path d="M 159 253 L 169 213 L 172 237 Z" fill="#25c4fb" fill-opacity="0.501961" />
<path d="M 360 365 L 390 375 L 377 365 Z" fill="#171c27" fill-opacity="0.501961" />
<path d="M 219 357 L 218 341 L 225 337 Z" fill="#64c6e9" fill-opacity="0.501961" />
<path d="M 367 76 L 383 25 L 321 108 Z" fill="#ffffff" fill-opacity="0.501961" />
<path d="M 282 145 L 295 131 L 266 149 Z" fill="#1e2028" fill-opacity="0.501961" />
<path d="M 129 288 L 85 299 L 120 279 Z" fill="#22bcf1" fill-opacity="0.501961" />
<path d="M 94 171 L 87 191 L 85 184 Z" fill="#1c2535" fill-opacity="0.501961" />
<path d="M 97 228 L 90 223 L 95 199 Z" fill="#1e3450" fill-opacity="0.501961" />
<path d="M 222 298 L 211 284 L 214 335 Z" fill="#20b7db" fill-opacity="0.501961" />
<path d="M 204 254 L 181 260 L 214 240 Z" fill="#2dcaff" fill-opacity="0.501961" />
<path d="M 130 350 L 181 358 L 153 362 Z" fill="#2bcaf8" fill-opacity="0.501961" />
<path d="M 385 414 L 405 387 L 396 357 Z" fill="#f6f8fa" fill-opacity="0.501961" />
<path d="M 218 247 L 231 242 L 241 222 Z" fill="#2bc0ea" fill-opacity="0.501961" />
<path d="M 249 229 L 242 220 L 249 238 Z" fill="#131f2e" fill-opacity="0.501961" />
<path d="M 288 36 L 316 16 L 274 81 Z" fill="#ffffff" fill-opacity="0.501961" />
<path d="M 171 323 L 135 330 L 192 301 Z" fill="#26b9e7" fill-opacity="0.501961" />
<path d="M 98 307 L 117 293 L 66 306 Z" fill="#194a67" fill-opacity="0.501961" />
<path d="M 117 328 L 180 293 L 152 321 Z" fill="#26b6e5" fill-opacity="0.501961" />
<path d="M 152 214 L 172 192 L 169 177 Z" fill="#102d3f" fill-opacity="0.501961" />
<path d="M 214 199 L 196 204 L 225 186 Z" fill="#af988f" fill-opacity="0.501961" />
<path d="M 187 361 L 166 368 L 144 362 Z" fill="#18303f" fill-opacity="0.501961" />
<path d="M 109 300 L 102 313 L 65 313 Z" fill="#29c9f8" fill-opacity="0.501961" />
<path d="M 153 352 L 187 360 L 196 349 Z" fill="#294a5e" fill-opacity="0.501961" />
<path d="M 14 291 L 35 302 L 8 273 Z" fill="#26c9f6" fill-opacity="0.501961" />
<path d="M 207 210 L 214 170 L 190 216 Z" fill="#252628" fill-opacity="0.501961" />
<path d="M 49 183 L 34 193 L 40 200 Z" fill="#251215" fill-opacity="0.501961" />
<path d="M 282 371 L 259 384 L 323 378 Z" fill="#2fb1de" fill-opacity="0.501961" />
<path d="M 87 166 L 104 158 L 76 188 Z" fill="#30c8e9" fill-opacity="0.501961" />
<path d="M 33 275 L 20 270 L 38 284 Z" fill="#1c1421" fill-opacity="0.501961" />
<path d="M 293 378 L 313 382 L 277 385 Z" fill="#253749" fill-opacity="0.501961" />
<path d="M 102 366 L 117 378 L 83 367 Z" fill="#42d2ec" fill-opacity="0.501961" />
<path d="M 6 285 L 28 301 L 10 295 Z" fill="#222d35" fill-opacity="0.501961" />
<path d="M 142 303 L 122 308 L 157 288 Z" fill="#193a51" fill-opacity="0.501961" />
<path d="M 152 325 L 170 309 L 132 328 Z" fill="#18405d" fill-opacity="0.501961" />
<path d="M 65 366 L 52 367 L 38 358 Z" fill="#2d2f3e" fill-opacity="0.501961" />
<path d="M 325 107 L 222 180 L 236 136 Z" fill="#f4f6f9" fill-opacity="0.501961" />
<path d="M 336 99 L 357 86 L 347 97 Z" fill="#191b1c" fill-opacity="0.501961" />
<path d="M 163 332 L 141 348 L 187 353 Z" fill="#218bbf" fill-opacity="0.501961" />
<path d="M 63 275 L 80 284 L 70 283 Z" fill="#110b14" fill-opacity="0.501961" />
<path d="M 28 316 L 34 323 L 55 322 Z" fill="#0e2d48" fill-opacity="0.501961" />
<path d="M 398 416 L 353 381 L 254 389 Z" fill="#fffefe" fill-opacity="0.501961" />
<path d="M 224 237 L 235 225 L 237 210 Z" fill="#111119" fill-opacity="0.501961" />
<path d="M 20 244 L 15 224 L 10 241 Z" fill="#182a3c" fill-opacity="0.501961" />
<path d="M 56 289 L 30 268 L 41 290 Z" fill="#3ba7d6" fill-opacity="0.501961" />
<path d="M 20 332 L -16 300 L 33 384 Z" fill="#fcfcfd" fill-opacity="0.501961" />
<path d="M 151 307 L 172 284 L 121 314 Z" fill="#27b1de" fill-opacity="0.501961" />
<path d="M 17 323 L 74 325 L 40 334 Z" fill="#22bcf3" fill-opacity="0.501961" />
<path d="M 267 353 L 214 370 L 239 338 Z" fill="#f7f2f6" fill-opacity="0.501961" />
<path d="M 103 274 L 93 231 L 104 249 Z" fill="#2abcec" fill-opacity="0.501961" />
<path d="M 373 64 L 370 74 L 388 84 Z" fill="#28292a" fill-opacity="0.501961" />
<path d="M 10 268 L 28 283 L 14 260 Z" fill="#1dccd4" fill-opacity="0.501961" />
<path d="M 124 203 L 120 227 L 128 211 Z" fill="#12344a" fill-opacity="0.501961" />
<path d="M 116 375 L 146 374 L 91 361 Z" fill="#204561" fill-opacity="0.501961" />
<path d="M 60 248 L 52 236 L 73 254 Z" fill="#131315" fill-opacity="0.501961" />
<path d="M 104 297 L 126 295 L 146 279 Z" fill="#123e5b" fill-opacity="0.501961" />
<path d="M 81 234 L 86 265 L 78 259 Z" fill="#292f40" fill-opacity="0.501961" />
<path d="M 109 274 L 118 277 L 113 242 Z" fill="#25b2df" fill-opacity="0.501961" />
<path d="M 112 268 L 105 237 L 103 276 Z" fill="#163751" fill-opacity="0.501961" />
<path d="M 218 226 L 217 202 L 211 227 Z" fill="#272433" fill-opacity="0.501961" />
<path d="M 212 355 L 214 363 L 199 374 Z" fill="#1e1923" fill-opacity="0.501961" />
<path d="M 228 309 L 222 329 L 222 292 Z" fill="#131b27" fill-opacity="0.501961" />
<path d="M 54 271 L 62 286 L 76 287 Z" fill="#2ec6f7" fill-opacity="0.501961" />
<path d="M 229 123 L 256 99 L 218 160 Z" fill="#666664" fill-opacity="0.501961" />
<path d="M 119 186 L 122 212 L 137 162 Z" fill="#2cb3e9" fill-opacity="0.501961" />
<path d="M 114 360 L 116 375 L 171 369 Z" fill="#29a5d5" fill-opacity="0.501961" />
<path d="M 255 264 L 254 281 L 247 251 Z" fill="#10282f" fill-opacity="0.501961" />
<path d="M 303 368 L 283 371 L 297 373 Z" fill="#102534" fill-opacity="0.501961" />
<path d="M 121 320 L 107 332 L 82 334 Z" fill="#1a3d58" fill-opacity="0.501961" />
</g>
</svg>
