<svg version="1.1" width="400" height="400" xmlns="http://www.w3.org/2000/svg">
<rect x="0" y="0" width="400" height="400" fill="#ffffff" />
<g transform="scale(1.68067, 1.68067)">
<path d="M -16 67 L 147 253 L 253 -16 Z" fill="#000000" fill-opacity="0.501961" />
<path d="M 121 253 L 121 -16 L -16 119 Z" fill="#000111" fill-opacity="0.501961" />
<path d="M 212 188 L 208 45 L 45 207 Z" fill="#000000" fill-opacity="0.501961" />
<path d="M 161 60 L 10 206 L 107 155 Z" fill="#ffffff" fill-opacity="0.501961" />
<path d="M 221 90 L 130 -13 L 253 -15 Z" fill="#ffffff" fill-opacity="0.501961" />
<path d="M 21 183 L 39 32 L 189 37 Z" fill="#00000a" fill-opacity="0.501961" />
<path d="M 164 253 L 169 209 L 53 223 Z" fill="#ffffff" fill-opacity="0.501961" />
<path d="M 35 1 L 1 175 L -16 10 Z" fill="#ffffff" fill-opacity="0.501961" />
<path d="M 221 116 L 70 214 L 171 201 Z" fill="#000012" fill-opacity="0.501961" />
<path d="M 72 21 L 223 121 L 148 16 Z" fill="#000719" fill-opacity="0.501961" />
<path d="M 62 -1 L 253 -16 L 233 46 Z" fill="#ffffff" fill-opacity="0.501961" />
<path d="M 95 118 L 172 77 L 49 202 Z" fill="#ffffff" fill-opacity="0.501961" />
<path d="M 253 186 L 215 155 L 111 253 Z" fill="#ffffff" fill-opacity="0.501961" />
<path d="M 11 111 L 126 86 L 34 183 Z" fill="#001724" fill-opacity="0.501961" />
<path d="M 186 -2 L 239 -16 L 228 166 Z" fill="#ffffff" fill-opacity="0.501961" />
<path d="M 6 22 L -5 98 L 54 31 Z" fill="#ffffff" fill-opacity="0.501961" />
<path d="M 118 131 L 142 215 L 68 208 Z" fill="#001327" fill-opacity="0.501961" />
<path d="M 194 55 L 184 154 L 144 24 Z" fill="#001322" fill-opacity="0.501961" />
<path d="M 49 209 L 204 226 L 93 253 Z" fill="#ffffff" fill-opacity="0.501961" />
<path d="M 20 150 L 24 63 L 72 24 Z" fill="#051923" fill-opacity="0.501961" />
<path d="M 3 59 L 31 202 L -14 125 Z" fill="#ffffff" fill-opacity="0.501961" />
<path d="M 116 78 L 106 61 L 97 74 Z" fill="#e8f2f2" fill-opacity="0.501961" />
<path d="M 182 23 L 203 36 L 187 58 Z" fill="#fab400" fill-opacity="0.501961" />
<path d="M 148 72 L 162 87 L 110 141 Z" fill="#ffffff" fill-opacity="0.501961" />
<path d="M 128 119 L 65 153 L 28 221 Z" fill="#ffffff" fill-opacity="0.501961" />
<path d="M 187 184 L 213 132 L 95 155 Z" fill="#0b1b2b" fill-opacity="0.501961" />
<path d="M 235 192 L 171 226 L 222 121 Z" fill="#ffffff" fill-opacity="0.501961" />
<path d="M 101 -6 L 73 19 L 164 6 Z" fill="#ffffff" fill-opacity="0.501961" />
<path d="M 125 43 L 126 28 L 135 34 Z" fill="#eff3f4" fill-opacity="0.501961" />
<path d="M 195 114 L 204 126 L 186 128 Z" fill="#e7e70f" fill-opacity="0.501961" />
<path d="M -16 130 L -16 72 L 55 21 Z" fill="#ffffff" fill-opacity="0.501961" />
<path d="M -16 166 L -4 120 L 62 218 Z" fill="#ffffff" fill-opacity="0.501961" />
<path d="M 206 237 L 197 196 L 55 239 Z" fill="#ffffff" fill-opacity="0.501961" />
<path d="M 192 159 L 211 130 L 211 97 Z" fill="#1c2222" fill-opacity="0.501961" />
<path d="M 147 104 L 88 215 L 145 212 Z" fill="#12212e" fill-opacity="0.501961" />
<path d="M 157 128 L 157 140 L 149 132 Z" fill="#e8e8ed" fill-opacity="0.501961" />
<path d="M 86 31 L 72 20 L 69 39 Z" fill="#d4cf23" fill-opacity="0.501961" />
<path d="M 175 40 L 98 18 L 138 16 Z" fill="#212f39" fill-opacity="0.501961" />
<path d="M 19 151 L 150 64 L 13 105 Z" fill="#172632" fill-opacity="0.501961" />
<path d="M 86 130 L 159 92 L 144 75 Z" fill="#f2f3f3" fill-opacity="0.501961" />
<path d="M 245 10 L 213 90 L 195 52 Z" fill="#ffffff" fill-opacity="0.501961" />
<path d="M 149 239 L 47 199 L 40 237 Z" fill="#ffffff" fill-opacity="0.501961" />
<path d="M 59 195 L 126 215 L 152 103 Z" fill="#131f2d" fill-opacity="0.501961" />
<path d="M 89 3 L 184 31 L 190 -6 Z" fill="#fefdfd" fill-opacity="0.501961" />
<path d="M 193 24 L 194 52 L 174 38 Z" fill="#f8cb1b" fill-opacity="0.501961" />
<path d="M 162 98 L 164 203 L 194 174 Z" fill="#10202f" fill-opacity="0.501961" />
<path d="M 215 99 L 249 114 L 202 205 Z" fill="#fbfbfb" fill-opacity="0.501961" />
<path d="M 108 14 L 135 70 L 59 54 Z" fill="#112530" fill-opacity="0.501961" />
<path d="M 20 77 L 14 107 L 23 97 Z" fill="#2f3a40" fill-opacity="0.501961" />
<path d="M 47 43 L 70 29 L 87 126 Z" fill="#162631" fill-opacity="0.501961" />
<path d="M 105 66 L 103 79 L 112 75 Z" fill="#d6d8d9" fill-opacity="0.501961" />
<path d="M 122 81 L 96 73 L 110 109 Z" fill="#232d36" fill-opacity="0.501961" />
<path d="M 187 133 L 188 178 L 212 140 Z" fill="#2f323a" fill-opacity="0.501961" />
<path d="M 190 61 L 173 41 L 191 53 Z" fill="#2e3b49" fill-opacity="0.501961" />
<path d="M 142 76 L 120 52 L 119 98 Z" fill="#454b50" fill-opacity="0.501961" />
<path d="M 168 182 L 124 213 L 163 203 Z" fill="#29323e" fill-opacity="0.501961" />
<path d="M 28 163 L 15 145 L 15 128 Z" fill="#4d5963" fill-opacity="0.501961" />
<path d="M 25 161 L 28 197 L 17 182 Z" fill="#ffffff" fill-opacity="0.501961" />
<path d="M 133 118 L 45 196 L 86 132 Z" fill="#eaeaeb" fill-opacity="0.501961" />
<path d="M 161 206 L 180 189 L 169 207 Z" fill="#afb2b7" fill-opacity="0.501961" />
<path d="M 81 119 L 58 159 L 82 135 Z" fill="#1b2631" fill-opacity="0.501961" />
<path d="M 13 105 L 12 38 L 2 75 Z" fill="#fcfcfc" fill-opacity="0.501961" />
<path d="M 83 217 L 73 208 L 103 217 Z" fill="#7c868d" fill-opacity="0.501961" />
<path d="M 206 126 L 190 125 L 196 113 Z" fill="#b4b428" fill-opacity="0.501961" />
<path d="M 215 109 L 160 82 L 190 66 Z" fill="#1a2631" fill-opacity="0.501961" />
<path d="M 208 84 L 212 87 L 209 101 Z" fill="#aaabad" fill-opacity="0.501961" />
<path d="M 86 130 L 103 113 L 94 116 Z" fill="#737a81" fill-opacity="0.501961" />
<path d="M 117 146 L 154 100 L 142 176 Z" fill="#292e37" fill-opacity="0.501961" />
<path d="M 116 74 L 103 61 L 134 37 Z" fill="#1c2731" fill-opacity="0.501961" />
<path d="M 70 204 L 118 215 L 92 216 Z" fill="#505c65" fill-opacity="0.501961" />
<path d="M 206 98 L 164 122 L 163 161 Z" fill="#172331" fill-opacity="0.501961" />
<path d="M 111 -16 L 26 35 L 90 17 Z" fill="#fdfdfe" fill-opacity="0.501961" />
<path d="M 99 154 L 53 172 L 63 154 Z" fill="#e5e5e7" fill-opacity="0.501961" />
<path d="M 72 23 L 85 32 L 60 33 Z" fill="#c2bf68" fill-opacity="0.501961" />
<path d="M 126 40 L 136 34 L 125 26 Z" fill="#9b9fa3" fill-opacity="0.501961" />
<path d="M 58 196 L 74 204 L 88 163 Z" fill="#252f3e" fill-opacity="0.501961" />
<path d="M 151 131 L 161 127 L 158 138 Z" fill="#9e9ea2" fill-opacity="0.501961" />
<path d="M 120 206 L 125 216 L 106 210 Z" fill="#192733" fill-opacity="0.501961" />
<path d="M 206 76 L 188 57 L 210 105 Z" fill="#40414a" fill-opacity="0.501961" />
<path d="M 101 16 L 130 28 L 83 34 Z" fill="#222d39" fill-opacity="0.501961" />
<path d="M 107 245 L 162 217 L 116 216 Z" fill="#fcfbfb" fill-opacity="0.501961" />
<path d="M 182 191 L 143 233 L 253 183 Z" fill="#ffffff" fill-opacity="0.501961" />
<path d="M 158 73 L 145 71 L 158 80 Z" fill="#4d545a" fill-opacity="0.501961" />
<path d="M 210 101 L 253 100 L 233 3 Z" fill="#ffffff" fill-opacity="0.501961" />
<path d="M 101 66 L 105 77 L 111 71 Z" fill="#d3d4d5" fill-opacity="0.501961" />
<path d="M 133 18 L 151 23 L 117 26 Z" fill="#313b46" fill-opacity="0.501961" />
<path d="M 24 58 L 23 74 L 15 81 Z" fill="#bab9b9" fill-opacity="0.501961" />
<path d="M 87 101 L 51 75 L 109 47 Z" fill="#1d2933" fill-opacity="0.501961" />
<path d="M 75 145 L 121 118 L 90 126 Z" fill="#c5c7c9" fill-opacity="0.501961" />
<path d="M 189 189 L 184 185 L 190 179 Z" fill="#c6c5c8" fill-opacity="0.501961" />
<path d="M 195 46 L 204 38 L 186 24 Z" fill="#eabc55" fill-opacity="0.501961" />
<path d="M 189 149 L 190 162 L 200 134 Z" fill="#4e525e" fill-opacity="0.501961" />
<path d="M 144 67 L 38 57 L 67 36 Z" fill="#121f2b" fill-opacity="0.501961" />
<path d="M -10 97 L 14 233 L 25 168 Z" fill="#ffffff" fill-opacity="0.501961" />
<path d="M 122 128 L 161 90 L 150 79 Z" fill="#dddddd" fill-opacity="0.501961" />
<path d="M 101 156 L 101 149 L 84 165 Z" fill="#777d84" fill-opacity="0.501961" />
<path d="M 171 193 L 160 205 L 154 194 Z" fill="#494d54" fill-opacity="0.501961" />
<path d="M -16 70 L 37 51 L 43 -4 Z" fill="#ffffff" fill-opacity="0.501961" />
<path d="M 143 155 L 158 140 L 148 135 Z" fill="#44434a" fill-opacity="0.501961" />
<path d="M 20 143 L 23 161 L 28 137 Z" fill="#2d3946" fill-opacity="0.501961" />
<path d="M 160 94 L 143 146 L 119 135 Z" fill="#212a34" fill-opacity="0.501961" />
<path d="M 161 213 L 143 213 L 173 202 Z" fill="#dadada" fill-opacity="0.501961" />
<path d="M 146 76 L 121 100 L 119 124 Z" fill="#eeeeee" fill-opacity="0.501961" />
<path d="M 14 137 L 14 117 L 17 128 Z" fill="#57616a" fill-opacity="0.501961" />
<path d="M 182 173 L 171 198 L 193 175 Z" fill="#333f4c" fill-opacity="0.501961" />
<path d="M 27 92 L 14 112 L 18 84 Z" fill="#363f48" fill-opacity="0.501961" />
<path d="M 160 126 L 148 206 L 185 130 Z" fill="#192430" fill-opacity="0.501961" />
<path d="M 68 205 L 55 204 L 68 210 Z" fill="#f1f1f3" fill-opacity="0.501961" />
<path d="M 192 166 L 210 138 L 202 128 Z" fill="#181d25" fill-opacity="0.501961" />
<path d="M 61 32 L 51 33 L 39 20 Z" fill="#fcfdfd" fill-opacity="0.501961" />
<path d="M 203 47 L 192 51 L 203 69 Z" fill="#d6d6d7" fill-opacity="0.501961" />
<path d="M 73 21 L 84 19 L 81 26 Z" fill="#737f93" fill-opacity="0.501961" />
<path d="M 33 182 L 39 178 L 30 173 Z" fill="#80858d" fill-opacity="0.501961" />
<path d="M 177 6 L 204 38 L 191 4 Z" fill="#eaeaea" fill-opacity="0.501961" />
<path d="M 223 118 L 214 107 L 213 130 Z" fill="#d0d3d5" fill-opacity="0.501961" />
<path d="M 122 17 L 191 3 L 120 -16 Z" fill="#ffffff" fill-opacity="0.501961" />
<path d="M 114 12 L 125 17 L 102 15 Z" fill="#9fa7ac" fill-opacity="0.501961" />
<path d="M 57 34 L 66 41 L 37 52 Z" fill="#2f3a46" fill-opacity="0.501961" />
<path d="M 215 136 L 210 143 L 213 132 Z" fill="#dadadb" fill-opacity="0.501961" />
<path d="M 118 73 L 62 99 L 112 106 Z" fill="#1b252f" fill-opacity="0.501961" />
<path d="M 82 176 L 113 213 L 82 209 Z" fill="#162332" fill-opacity="0.501961" />
<path d="M 211 97 L 192 73 L 204 71 Z" fill="#48474b" fill-opacity="0.501961" />
<path d="M 20 150 L 17 130 L 14 141 Z" fill="#838a90" fill-opacity="0.501961" />
<path d="M 36 58 L 25 66 L 24 81 Z" fill="#3e4548" fill-opacity="0.501961" />
<path d="M 18 67 L 30 59 L 22 58 Z" fill="#e4e2e2" fill-opacity="0.501961" />
<path d="M 43 169 L 42 175 L 54 164 Z" fill="#48525c" fill-opacity="0.501961" />
<path d="M 124 34 L 127 28 L 136 33 Z" fill="#a6a9ac" fill-opacity="0.501961" />
<path d="M 223 44 L 200 47 L 212 96 Z" fill="#efefef" fill-opacity="0.501961" />
<path d="M 111 106 L 30 152 L 27 109 Z" fill="#0f1c28" fill-opacity="0.501961" />
<path d="M 178 192 L 162 221 L 195 190 Z" fill="#ffffff" fill-opacity="0.501961" />
<path d="M 102 76 L 36 95 L 70 60 Z" fill="#1f2931" fill-opacity="0.501961" />
<path d="M 47 206 L 59 193 L 40 188 Z" fill="#fefeff" fill-opacity="0.501961" />
<path d="M 149 71 L 129 66 L 118 91 Z" fill="#40464a" fill-opacity="0.501961" />
<path d="M 184 62 L 202 69 L 179 46 Z" fill="#404548" fill-opacity="0.501961" />
<path d="M 62 155 L 64 166 L 46 185 Z" fill="#e1e3e5" fill-opacity="0.501961" />
<path d="M 65 178 L 62 188 L 77 175 Z" fill="#bec3c6" fill-opacity="0.501961" />
<path d="M 21 203 L 73 209 L 102 238 Z" fill="#ffffff" fill-opacity="0.501961" />
<path d="M 127 203 L 150 205 L 128 215 Z" fill="#24303b" fill-opacity="0.501961" />
<path d="M 124 42 L 177 93 L 148 43 Z" fill="#1d2b36" fill-opacity="0.501961" />
<path d="M 196 47 L 203 38 L 198 39 Z" fill="#e3b86c" fill-opacity="0.501961" />
<path d="M 89 165 L 112 212 L 118 150 Z" fill="#0b1826" fill-opacity="0.501961" />
<path d="M 25 168 L 24 181 L 37 184 Z" fill="#d0d3d5" fill-opacity="0.501961" />
<path d="M 22 185 L 23 159 L 7 142 Z" fill="#ffffff" fill-opacity="0.501961" />
<path d="M 126 27 L 141 22 L 146 34 Z" fill="#454b53" fill-opacity="0.501961" />
<path d="M 132 128 L 125 143 L 156 128 Z" fill="#272d36" fill-opacity="0.501961" />
<path d="M 148 78 L 132 118 L 162 87 Z" fill="#e4e4e4" fill-opacity="0.501961" />
<path d="M 150 250 L 119 246 L 115 215 Z" fill="#ffffff" fill-opacity="0.501961" />
<path d="M 113 74 L 108 72 L 107 75 Z" fill="#9da0a3" fill-opacity="0.501961" />
<path d="M 82 138 L 46 198 L 74 173 Z" fill="#edeeef" fill-opacity="0.501961" />
<path d="M 36 172 L 61 149 L 14 120 Z" fill="#1d2935" fill-opacity="0.501961" />
<path d="M 104 76 L 109 73 L 104 80 Z" fill="#a8acb0" fill-opacity="0.501961" />
<path d="M 118 129 L 118 120 L 136 111 Z" fill="#fdfdfd" fill-opacity="0.501961" />
<path d="M 88 164 L 78 169 L 93 152 Z" fill="#dbdbdc" fill-opacity="0.501961" />
<path d="M 118 167 L 193 167 L 177 191 Z" fill="#16212e" fill-opacity="0.501961" />
<path d="M 156 140 L 168 149 L 138 172 Z" fill="#2a3039" fill-opacity="0.501961" />
<path d="M 134 29 L 93 19 L 120 17 Z" fill="#28333f" fill-opacity="0.501961" />
<path d="M 43 43 L 39 33 L 53 33 Z" fill="#cbcfd0" fill-opacity="0.501961" />
<path d="M 130 17 L 144 15 L 145 19 Z" fill="#abb0b6" fill-opacity="0.501961" />
<path d="M 71 25 L 85 29 L 78 34 Z" fill="#d5cd44" fill-opacity="0.501961" />
<path d="M 118 97 L 95 104 L 108 76 Z" fill="#1e2730" fill-opacity="0.501961" />
<path d="M 186 21 L 186 29 L 180 19 Z" fill="#f5e5c6" fill-opacity="0.501961" />
<path d="M 209 111 L 214 124 L 209 121 Z" fill="#80848a" fill-opacity="0.501961" />
<path d="M 178 190 L 189 180 L 191 185 Z" fill="#bebec1" fill-opacity="0.501961" />
<path d="M 114 215 L 133 227 L 146 223 Z" fill="#e7e8e8" fill-opacity="0.501961" />
<path d="M 13 112 L -16 114 L 11 127 Z" fill="#dedfe1" fill-opacity="0.501961" />
<path d="M 47 206 L 61 204 L 52 202 Z" fill="#b2b2b6" fill-opacity="0.501961" />
<path d="M 70 32 L 61 33 L 72 23 Z" fill="#767f97" fill-opacity="0.501961" />
<path d="M 175 42 L 176 35 L 171 35 Z" fill="#777445" fill-opacity="0.501961" />
<path d="M 218 121 L 211 134 L 213 123 Z" fill="#abaeb2" fill-opacity="0.501961" />
<path d="M 30 173 L 43 170 L 27 163 Z" fill="#39434d" fill-opacity="0.501961" />
<path d="M 82 215 L 98 218 L 85 220 Z" fill="#e0e1e3" fill-opacity="0.501961" />
<path d="M 113 72 L 104 58 L 111 49 Z" fill="#1a242e" fill-opacity="0.501961" />
<path d="M 128 124 L 133 118 L 131 123 Z" fill="#66686b" fill-opacity="0.501961" />
<path d="M -3 92 L 22 61 L 17 80 Z" fill="#e9e9e9" fill-opacity="0.501961" />
<path d="M 171 48 L 154 28 L 181 46 Z" fill="#1e2c37" fill-opacity="0.501961" />
<path d="M 144 212 L 138 210 L 149 206 Z" fill="#424a52" fill-opacity="0.501961" />
<path d="M 213 213 L 214 131 L 253 71 Z" fill="#ffffff" fill-opacity="0.501961" />
<path d="M 110 -8 L 84 19 L 2 -3 Z" fill="#ffffff" fill-opacity="0.501961" />
<path d="M 209 143 L 198 148 L 200 160 Z" fill="#31343a" fill-opacity="0.501961" />
<path d="M 92 125 L 77 146 L 115 115 Z" fill="#cccccf" fill-opacity="0.501961" />
<path d="M 176 36 L 182 43 L 173 39 Z" fill="#b7a131" fill-opacity="0.501961" />
<path d="M 124 26 L 125 52 L 115 24 Z" fill="#1f2b36" fill-opacity="0.501961" />
<path d="M 74 27 L 78 28 L 75 25 Z" fill="#ffff9a" fill-opacity="0.501961" />
<path d="M 200 106 L 193 106 L 192 118 Z" fill="#49454c" fill-opacity="0.501961" />
<path d="M 159 136 L 162 124 L 163 133 Z" fill="#4e494c" fill-opacity="0.501961" />
<path d="M 17 165 L 25 163 L 22 189 Z" fill="#ffffff" fill-opacity="0.501961" />
<path d="M 120 17 L 120 25 L 134 20 Z" fill="#4d5660" fill-opacity="0.501961" />
<path d="M 119 120 L 110 141 L 82 145 Z" fill="#e7e7e8" fill-opacity="0.501961" />
<path d="M 145 19 L 151 22 L 143 14 Z" fill="#abb0b3" fill-opacity="0.501961" />
<path d="M 150 74 L 145 74 L 151 86 Z" fill="#dedede" fill-opacity="0.501961" />
<path d="M 116 -5 L 204 -2 L 148 17 Z" fill="#ffffff" fill-opacity="0.501961" />
<path d="M 89 205 L 58 197 L 81 194 Z" fill="#1a2533" fill-opacity="0.501961" />
<path d="M 153 212 L 147 211 L 161 206 Z" fill="#b7b7b7" fill-opacity="0.501961" />
<path d="M 211 100 L 219 72 L 244 146 Z" fill="#ffffff" fill-opacity="0.501961" />
<path d="M 168 130 L 197 98 L 162 177 Z" fill="#14202c" fill-opacity="0.501961" />
<path d="M 211 101 L 208 96 L 209 90 Z" fill="#999a99" fill-opacity="0.501961" />
<path d="M 82 212 L 89 211 L 89 214 Z" fill="#888f95" fill-opacity="0.501961" />
<path d="M 154 132 L 156 138 L 148 133 Z" fill="#9c9da0" fill-opacity="0.501961" />
<path d="M 172 203 L 129 227 L 146 251 Z" fill="#f4f4f4" fill-opacity="0.501961" />
<path d="M 16 148 L 0 114 L -6 127 Z" fill="#e5e5e7" fill-opacity="0.501961" />
<path d="M 48 77 L 37 52 L 97 41 Z" fill="#101d28" fill-opacity="0.501961" />
<path d="M 119 132 L 131 167 L 147 135 Z" fill="#272e36" fill-opacity="0.501961" />
<path d="M 29 179 L 17 188 L 49 212 Z" fill="#ffffff" fill-opacity="0.501961" />
<path d="M 150 133 L 160 126 L 156 138 Z" fill="#a1a1a3" fill-opacity="0.501961" />
<path d="M 163 100 L 158 93 L 162 92 Z" fill="#45464e" fill-opacity="0.501961" />
<path d="M 119 98 L 134 80 L 120 54 Z" fill="#3c4248" fill-opacity="0.501961" />
<path d="M 186 129 L 204 126 L 193 124 Z" fill="#a1a230" fill-opacity="0.501961" />
<path d="M 207 105 L 211 133 L 205 121 Z" fill="#2a2f39" fill-opacity="0.501961" />
<path d="M 21 147 L 38 96 L 23 86 Z" fill="#16222d" fill-opacity="0.501961" />
<path d="M 22 81 L 22 74 L 16 84 Z" fill="#80807f" fill-opacity="0.501961" />
<path d="M 28 177 L 24 182 L 26 170 Z" fill="#b2b5b8" fill-opacity="0.501961" />
<path d="M 178 31 L 183 11 L 154 23 Z" fill="#eff0f0" fill-opacity="0.501961" />
<path d="M 229 124 L 217 120 L 217 114 Z" fill="#dadcde" fill-opacity="0.501961" />
<path d="M 140 68 L 148 29 L 119 65 Z" fill="#212c37" fill-opacity="0.501961" />
<path d="M 209 160 L 201 164 L 198 171 Z" fill="#b9b9bd" fill-opacity="0.501961" />
<path d="M 72 41 L 115 26 L 96 23 Z" fill="#2b3641" fill-opacity="0.501961" />
<path d="M 105 112 L 115 123 L 110 124 Z" fill="#d6d7d9" fill-opacity="0.501961" />
<path d="M 101 151 L 106 144 L 103 145 Z" fill="#9ea1a5" fill-opacity="0.501961" />
<path d="M 170 197 L 171 149 L 187 155 Z" fill="#0e1b28" fill-opacity="0.501961" />
<path d="M 106 155 L 92 161 L 104 149 Z" fill="#404954" fill-opacity="0.501961" />
<path d="M 138 164 L 119 135 L 161 94 Z" fill="#252c35" fill-opacity="0.501961" />
<path d="M 172 87 L 188 98 L 193 61 Z" fill="#0c1a26" fill-opacity="0.501961" />
<path d="M 65 181 L 81 144 L 113 136 Z" fill="#e7e7e8" fill-opacity="0.501961" />
<path d="M 177 179 L 190 177 L 188 158 Z" fill="#263340" fill-opacity="0.501961" />
<path d="M 70 37 L 59 33 L 42 55 Z" fill="#232f39" fill-opacity="0.501961" />
<path d="M 41 47 L 39 50 L 42 51 Z" fill="#626b74" fill-opacity="0.501961" />
<path d="M 217 -16 L 204 73 L 236 1 Z" fill="#f1f1f1" fill-opacity="0.501961" />
<path d="M 2 179 L 17 172 L 24 160 Z" fill="#fcfdfd" fill-opacity="0.501961" />
<path d="M 180 192 L 234 185 L 220 219 Z" fill="#ffffff" fill-opacity="0.501961" />
<path d="M 165 211 L 154 210 L 166 204 Z" fill="#dadad9" fill-opacity="0.501961" />
<path d="M 183 61 L 206 78 L 208 97 Z" fill="#3c3d43" fill-opacity="0.501961" />
<path d="M 209 139 L 212 138 L 212 135 Z" fill="#9d9ea1" fill-opacity="0.501961" />
<path d="M 80 19 L 70 22 L 71 19 Z" fill="#d2d4e0" fill-opacity="0.501961" />
<path d="M 13 103 L 14 88 L 4 103 Z" fill="#d5d7d9" fill-opacity="0.501961" />
<path d="M 133 99 L 113 107 L 140 80 Z" fill="#dbdbdb" fill-opacity="0.501961" />
<path d="M 211 107 L 211 110 L 213 109 Z" fill="#7b828a" fill-opacity="0.501961" />
<path d="M 102 75 L 53 72 L 41 109 Z" fill="#1c2630" fill-opacity="0.501961" />
<path d="M -16 215 L 36 235 L 69 205 Z" fill="#ffffff" fill-opacity="0.501961" />
<path d="M 80 25 L 87 20 L 85 28 Z" fill="#394852" fill-opacity="0.501961" />
<path d="M 70 29 L 72 24 L 70 23 Z" fill="#cdc73e" fill-opacity="0.501961" />
<path d="M 172 125 L 163 119 L 160 96 Z" fill="#1c2734" fill-opacity="0.501961" />
<path d="M 155 196 L 158 204 L 147 206 Z" fill="#41454d" fill-opacity="0.501961" />
<path d="M 197 128 L 190 128 L 198 144 Z" fill="#41444f" fill-opacity="0.501961" />
<path d="M 95 12 L 95 16 L 84 19 Z" fill="#bbc1c5" fill-opacity="0.501961" />
<path d="M 106 118 L 110 109 L 131 103 Z" fill="#efeeef" fill-opacity="0.501961" />
<path d="M 176 78 L 173 52 L 161 85 Z" fill="#1f2d37" fill-opacity="0.501961" />
<path d="M 117 184 L 119 134 L 128 160 Z" fill="#17232f" fill-opacity="0.501961" />
<path d="M 163 125 L 158 102 L 152 129 Z" fill="#403f49" fill-opacity="0.501961" />
<path d="M 183 43 L 192 33 L 195 50 Z" fill="#ebbf2c" fill-opacity="0.501961" />
<path d="M 119 11 L 121 17 L 115 11 Z" fill="#c1c4c8" fill-opacity="0.501961" />
<path d="M 162 86 L 157 80 L 159 85 Z" fill="#acacab" fill-opacity="0.501961" />
<path d="M 193 54 L 181 58 L 183 52 Z" fill="#56584e" fill-opacity="0.501961" />
<path d="M 103 69 L 104 72 L 110 71 Z" fill="#d5d6d8" fill-opacity="0.501961" />
<path d="M 168 192 L 134 196 L 137 165 Z" fill="#15202d" fill-opacity="0.501961" />
<path d="M 35 69 L 22 96 L 31 99 Z" fill="#232f36" fill-opacity="0.501961" />
<path d="M 17 90 L 23 81 L 19 101 Z" fill="#444b51" fill-opacity="0.501961" />
<path d="M 138 35 L 125 55 L 128 41 Z" fill="#212b36" fill-opacity="0.501961" />
<path d="M 18 71 L 17 85 L 9 77 Z" fill="#e0e0e0" fill-opacity="0.501961" />
<path d="M 9 178 L 22 202 L 25 162 Z" fill="#ffffff" fill-opacity="0.501961" />
<path d="M 175 195 L 169 202 L 160 205 Z" fill="#9d9fa3" fill-opacity="0.501961" />
<path d="M 29 127 L 28 163 L 17 128 Z" fill="#1f2c39" fill-opacity="0.501961" />
<path d="M 126 127 L 123 128 L 128 123 Z" fill="#787a7c" fill-opacity="0.501961" />
<path d="M 36 51 L 0 50 L -16 69 Z" fill="#ffffff" fill-opacity="0.501961" />
<path d="M 201 126 L 204 124 L 199 118 Z" fill="#bdbe37" fill-opacity="0.501961" />
<path d="M 140 99 L 147 75 L 128 104 Z" fill="#f4f4f4" fill-opacity="0.501961" />
<path d="M 206 31 L 212 42 L 193 28 Z" fill="#f0f0f0" fill-opacity="0.501961" />
<path d="M 30 178 L 34 193 L -16 211 Z" fill="#ffffff" fill-opacity="0.501961" />
<path d="M 191 163 L 187 155 L 193 149 Z" fill="#444853" fill-opacity="0.501961" />
<path d="M 204 145 L 192 166 L 200 130 Z" fill="#1c212a" fill-opacity="0.501961" />
<path d="M 92 19 L 86 19 L 85 29 Z" fill="#3c4b57" fill-opacity="0.501961" />
<path d="M 72 35 L 77 27 L 77 36 Z" fill="#b9b435" fill-opacity="0.501961" />
<path d="M 18 140 L 20 153 L 15 144 Z" fill="#838a91" fill-opacity="0.501961" />
<path d="M 225 27 L 239 26 L 230 -16 Z" fill="#f9f9f9" fill-opacity="0.501961" />
<path d="M 79 174 L 88 165 L 111 206 Z" fill="#0d1927" fill-opacity="0.501961" />
<path d="M 118 123 L 122 131 L 110 126 Z" fill="#ebebeb" fill-opacity="0.501961" />
<path d="M 110 75 L 99 72 L 102 68 Z" fill="#b7b9bb" fill-opacity="0.501961" />
<path d="M 84 133 L 81 138 L 93 134 Z" fill="#cdd0d1" fill-opacity="0.501961" />
<path d="M 152 25 L 154 61 L 165 58 Z" fill="#0f1f2c" fill-opacity="0.501961" />
<path d="M 21 146 L 20 151 L 18 152 Z" fill="#3a464e" fill-opacity="0.501961" />
<path d="M 18 205 L 116 249 L 76 211 Z" fill="#ffffff" fill-opacity="0.501961" />
<path d="M 92 118 L 58 152 L 79 112 Z" fill="#0d1924" fill-opacity="0.501961" />
<path d="M 163 86 L 143 92 L 152 81 Z" fill="#dddddd" fill-opacity="0.501961" />
<path d="M 189 7 L 186 21 L 195 25 Z" fill="#dededc" fill-opacity="0.501961" />
<path d="M 114 13 L 121 -14 L 96 9 Z" fill="#e6e7e8" fill-opacity="0.501961" />
<path d="M 59 152 L 57 160 L 62 154 Z" fill="#48535d" fill-opacity="0.501961" />
<path d="M 109 216 L 113 214 L 103 214 Z" fill="#93999f" fill-opacity="0.501961" />
<path d="M 148 206 L 148 194 L 135 196 Z" fill="#212c37" fill-opacity="0.501961" />
<path d="M 41 48 L 38 53 L 39 48 Z" fill="#575e67" fill-opacity="0.501961" />
<path d="M 107 145 L 110 138 L 113 138 Z" fill="#bdc0c3" fill-opacity="0.501961" />
<path d="M 187 50 L 184 48 L 185 57 Z" fill="#675830" fill-opacity="0.501961" />
<path d="M 87 129 L 109 126 L 125 109 Z" fill="#cfd0d2" fill-opacity="0.501961" />
<path d="M 37 165 L 32 175 L 31 171 Z" fill="#323c47" fill-opacity="0.501961" />
<path d="M 166 168 L 162 179 L 171 198 Z" fill="#262630" fill-opacity="0.501961" />
<path d="M 109 72 L 106 75 L 102 66 Z" fill="#cfd0d2" fill-opacity="0.501961" />
<path d="M 210 111 L 209 105 L 213 105 Z" fill="#585d65" fill-opacity="0.501961" />
<path d="M 115 76 L 113 74 L 114 77 Z" fill="#6a727a" fill-opacity="0.501961" />
<path d="M 78 211 L 89 202 L 92 210 Z" fill="#273341" fill-opacity="0.501961" />
<path d="M 204 38 L 197 38 L 195 32 Z" fill="#f1cb8c" fill-opacity="0.501961" />
<path d="M 101 67 L 58 65 L 47 94 Z" fill="#212831" fill-opacity="0.501961" />
<path d="M 209 124 L 210 137 L 205 130 Z" fill="#151b24" fill-opacity="0.501961" />
<path d="M 120 52 L 99 33 L 119 27 Z" fill="#0e1824" fill-opacity="0.501961" />
<path d="M 77 175 L 76 174 L 79 172 Z" fill="#858e93" fill-opacity="0.501961" />
<path d="M 125 127 L 120 133 L 116 133 Z" fill="#9c9e9f" fill-opacity="0.501961" />
<path d="M 192 32 L 192 24 L 181 33 Z" fill="#f8d44b" fill-opacity="0.501961" />
<path d="M 159 81 L 157 78 L 154 79 Z" fill="#7a7979" fill-opacity="0.501961" />
<path d="M 76 21 L 82 22 L 70 24 Z" fill="#7c838d" fill-opacity="0.501961" />
<path d="M 194 112 L 191 92 L 186 129 Z" fill="#34373e" fill-opacity="0.501961" />
<path d="M 211 151 L 214 188 L 206 176 Z" fill="#ededed" fill-opacity="0.501961" />
<path d="M 34 179 L 34 182 L 37 180 Z" fill="#7f868d" fill-opacity="0.501961" />
<path d="M 57 160 L 54 163 L 54 157 Z" fill="#4d5761" fill-opacity="0.501961" />
<path d="M 200 107 L 210 103 L 210 113 Z" fill="#2d343d" fill-opacity="0.501961" />
<path d="M 85 131 L 95 124 L 91 129 Z" fill="#aeb2b4" fill-opacity="0.501961" />
<path d="M 146 212 L 142 213 L 142 217 Z" fill="#d5d5d5" fill-opacity="0.501961" />
<path d="M 196 49 L 215 52 L 211 40 Z" fill="#f0f0f0" fill-opacity="0.501961" />
<path d="M 128 38 L 125 40 L 125 29 Z" fill="#979ba0" fill-opacity="0.501961" />
<path d="M 200 165 L 194 170 L 196 172 Z" fill="#898890" fill-opacity="0.501961" />
<path d="M 80 173 L 80 170 L 85 168 Z" fill="#373e44" fill-opacity="0.501961" />
<path d="M 93 106 L 124 74 L 43 106 Z" fill="#17222e" fill-opacity="0.501961" />
<path d="M 48 182 L 10 208 L 56 195 Z" fill="#ffffff" fill-opacity="0.501961" />
<path d="M 140 206 L 131 174 L 103 209 Z" fill="#0e1d2a" fill-opacity="0.501961" />
<path d="M 144 63 L 149 73 L 145 69 Z" fill="#1a2733" fill-opacity="0.501961" />
<path d="M 152 198 L 168 194 L 161 205 Z" fill="#41454e" fill-opacity="0.501961" />
<path d="M 142 21 L 157 30 L 146 33 Z" fill="#1b2a35" fill-opacity="0.501961" />
<path d="M 154 142 L 147 141 L 141 156 Z" fill="#434246" fill-opacity="0.501961" />
<path d="M 26 167 L -16 171 L -6 190 Z" fill="#ffffff" fill-opacity="0.501961" />
<path d="M 65 150 L 68 150 L 61 155 Z" fill="#323c44" fill-opacity="0.501961" />
<path d="M 31 123 L 35 75 L 65 43 Z" fill="#0e1c24" fill-opacity="0.501961" />
<path d="M 166 29 L 181 26 L 155 17 Z" fill="#eeeeee" fill-opacity="0.501961" />
<path d="M 72 40 L 71 38 L 79 37 Z" fill="#4f594a" fill-opacity="0.501961" />
<path d="M 37 170 L 28 162 L 55 149 Z" fill="#1e2a36" fill-opacity="0.501961" />
<path d="M 44 59 L 34 53 L 48 53 Z" fill="#1e2a34" fill-opacity="0.501961" />
<path d="M 121 28 L 95 21 L 120 17 Z" fill="#232e3b" fill-opacity="0.501961" />
<path d="M 84 206 L 75 209 L 74 203 Z" fill="#414f5a" fill-opacity="0.501961" />
<path d="M 146 211 L 143 212 L 141 205 Z" fill="#4d535a" fill-opacity="0.501961" />
<path d="M 124 212 L 118 215 L 114 214 Z" fill="#3b454e" fill-opacity="0.501961" />
<path d="M 103 16 L 111 17 L 108 14 Z" fill="#7a8289" fill-opacity="0.501961" />
<path d="M 77 25 L 76 23 L 74 22 Z" fill="#9ba1be" fill-opacity="0.501961" />
<path d="M 174 122 L 187 106 L 163 92 Z" fill="#1f2934" fill-opacity="0.501961" />
<path d="M 14 103 L -11 103 L -16 93 Z" fill="#eeeeef" fill-opacity="0.501961" />
<path d="M 108 77 L 103 91 L 109 110 Z" fill="#1a242e" fill-opacity="0.501961" />
<path d="M 56 183 L 71 175 L 60 187 Z" fill="#dcdddf" fill-opacity="0.501961" />
<path d="M 12 86 L -16 64 L 13 63 Z" fill="#f5f5f5" fill-opacity="0.501961" />
<path d="M 103 212 L 90 210 L 90 215 Z" fill="#424c58" fill-opacity="0.501961" />
<path d="M 75 210 L 84 214 L 83 217 Z" fill="#c5c7ca" fill-opacity="0.501961" />
<path d="M 119 86 L 115 102 L 90 102 Z" fill="#222932" fill-opacity="0.501961" />
<path d="M 56 197 L 64 205 L 64 200 Z" fill="#797a84" fill-opacity="0.501961" />
<path d="M 125 17 L 131 18 L 132 16 Z" fill="#8e939c" fill-opacity="0.501961" />
<path d="M 122 2 L 167 10 L 133 16 Z" fill="#ffffff" fill-opacity="0.501961" />
<path d="M 151 68 L 152 74 L 156 70 Z" fill="#4d555d" fill-opacity="0.501961" />
<path d="M 196 105 L 204 120 L 194 111 Z" fill="#46454d" fill-opacity="0.501961" />
<path d="M 80 24 L 86 20 L 80 27 Z" fill="#3b454f" fill-opacity="0.501961" />
<path d="M 84 180 L 68 199 L 74 179 Z" fill="#242b37" fill-opacity="0.501961" />
<path d="M 169 33 L 158 31 L 153 25 Z" fill="#7e7f7f" fill-opacity="0.501961" />
<path d="M 207 97 L 194 84 L 209 113 Z" fill="#212832" fill-opacity="0.501961" />
<path d="M 119 132 L 119 121 L 123 123 Z" fill="#f6f6f6" fill-opacity="0.501961" />
<path d="M 117 28 L 129 28 L 138 21 Z" fill="#202832" fill-opacity="0.501961" />
<path d="M 198 139 L 199 130 L 191 144 Z" fill="#474b56" fill-opacity="0.501961" />
<path d="M 159 136 L 158 130 L 157 133 Z" fill="#a7a7a9" fill-opacity="0.501961" />
<path d="M 162 102 L 165 96 L 170 116 Z" fill="#3c3d44" fill-opacity="0.501961" />
<path d="M 117 155 L 117 137 L 106 157 Z" fill="#0c1927" fill-opacity="0.501961" />
<path d="M 105 103 L 23 112 L 60 151 Z" fill="#0f1b27" fill-opacity="0.501961" />
<path d="M 126 128 L 142 156 L 155 99 Z" fill="#252c35" fill-opacity="0.501961" />
<path d="M 186 139 L 194 130 L 186 131 Z" fill="#403f46" fill-opacity="0.501961" />
<path d="M 76 174 L 76 172 L 77 172 Z" fill="#d8dbdd" fill-opacity="0.501961" />
<path d="M 201 87 L 207 83 L 205 76 Z" fill="#3f3e42" fill-opacity="0.501961" />
<path d="M 95 116 L 95 119 L 101 113 Z" fill="#39444d" fill-opacity="0.501961" />
<path d="M 16 149 L 12 145 L 12 135 Z" fill="#cccfd2" fill-opacity="0.501961" />
<path d="M 149 128 L 157 126 L 151 131 Z" fill="#404046" fill-opacity="0.501961" />
<path d="M 200 64 L 207 73 L 200 55 Z" fill="#cdcdcf" fill-opacity="0.501961" />
<path d="M 28 120 L 62 154 L 28 136 Z" fill="#1a2833" fill-opacity="0.501961" />
<path d="M 148 73 L 150 80 L 151 73 Z" fill="#cdcccc" fill-opacity="0.501961" />
<path d="M 147 152 L 163 137 L 166 153 Z" fill="#292f38" fill-opacity="0.501961" />
<path d="M 108 223 L 124 253 L 82 218 Z" fill="#f3f2f3" fill-opacity="0.501961" />
<path d="M 86 30 L 73 37 L 78 27 Z" fill="#b2ae3b" fill-opacity="0.501961" />
<path d="M 70 150 L 64 157 L 67 161 Z" fill="#c7c9cb" fill-opacity="0.501961" />
<path d="M 195 134 L 186 139 L 185 156 Z" fill="#1e212d" fill-opacity="0.501961" />
<path d="M 150 214 L 122 221 L 132 230 Z" fill="#eceded" fill-opacity="0.501961" />
<path d="M 143 20 L 131 27 L 141 33 Z" fill="#444a52" fill-opacity="0.501961" />
<path d="M 168 36 L 173 37 L 164 41 Z" fill="#2c3744" fill-opacity="0.501961" />
<path d="M 116 216 L 118 253 L 148 251 Z" fill="#ffffff" fill-opacity="0.501961" />
<path d="M 77 145 L 79 140 L 73 148 Z" fill="#95999e" fill-opacity="0.501961" />
<path d="M 186 67 L 164 83 L 174 56 Z" fill="#1f2c37" fill-opacity="0.501961" />
<path d="M 253 145 L 219 120 L 211 147 Z" fill="#ffffff" fill-opacity="0.501961" />
<path d="M 21 73 L 21 67 L 19 73 Z" fill="#b6b6b6" fill-opacity="0.501961" />
<path d="M 121 34 L 125 29 L 123 35 Z" fill="#41484f" fill-opacity="0.501961" />
<path d="M 19 77 L 23 75 L 23 72 Z" fill="#777778" fill-opacity="0.501961" />
<path d="M 26 161 L 47 141 L 29 133 Z" fill="#162330" fill-opacity="0.501961" />
<path d="M 30 55 L 21 58 L 20 66 Z" fill="#e1e2e2" fill-opacity="0.501961" />
<path d="M 214 114 L 214 110 L 211 115 Z" fill="#a3a9af" fill-opacity="0.501961" />
<path d="M 130 212 L 143 204 L 136 214 Z" fill="#2d3842" fill-opacity="0.501961" />
<path d="M 197 124 L 186 129 L 194 117 Z" fill="#9a9a25" fill-opacity="0.501961" />
<path d="M 188 24 L 184 29 L 181 21 Z" fill="#f2dbb4" fill-opacity="0.501961" />
<path d="M 54 41 L 75 43 L 61 33 Z" fill="#25313c" fill-opacity="0.501961" />
<path d="M 59 31 L 112 -16 L -16 21 Z" fill="#ffffff" fill-opacity="0.501961" />
<path d="M 161 27 L 157 22 L 155 25 Z" fill="#cacaca" fill-opacity="0.501961" />
<path d="M 164 219 L 213 225 L 169 204 Z" fill="#ffffff" fill-opacity="0.501961" />
<path d="M 39 174 L 42 175 L 39 176 Z" fill="#5b636d" fill-opacity="0.501961" />
<path d="M 68 163 L 63 158 L 50 177 Z" fill="#e0e1e3" fill-opacity="0.501961" />
<path d="M 210 100 L 212 115 L 207 103 Z" fill="#434950" fill-opacity="0.501961" />
<path d="M 92 156 L 117 131 L 100 132 Z" fill="#e8e8e9" fill-opacity="0.501961" />
<path d="M 115 50 L 100 67 L 99 40 Z" fill="#1c242f" fill-opacity="0.501961" />
<path d="M 98 214 L 105 216 L 102 217 Z" fill="#848a91" fill-opacity="0.501961" />
<path d="M 189 49 L 183 46 L 185 49 Z" fill="#be9d6f" fill-opacity="0.501961" />
<path d="M 211 93 L 221 70 L 253 64 Z" fill="#ffffff" fill-opacity="0.501961" />
<path d="M 20 150 L 24 161 L 24 153 Z" fill="#57626b" fill-opacity="0.501961" />
<path d="M 123 139 L 144 118 L 150 131 Z" fill="#262d35" fill-opacity="0.501961" />
<path d="M 205 116 L 205 111 L 203 112 Z" fill="#61626b" fill-opacity="0.501961" />
<path d="M 22 150 L 27 142 L 27 160 Z" fill="#283441" fill-opacity="0.501961" />
<path d="M 119 83 L 120 97 L 139 67 Z" fill="#41464a" fill-opacity="0.501961" />
<path d="M 74 139 L 83 135 L 75 142 Z" fill="#384148" fill-opacity="0.501961" />
<path d="M 158 18 L 154 23 L 146 16 Z" fill="#e2e3e3" fill-opacity="0.501961" />
<path d="M 42 46 L 47 45 L 52 38 Z" fill="#626c74" fill-opacity="0.501961" />
<path d="M 19 148 L 23 136 L 31 133 Z" fill="#1f2c38" fill-opacity="0.501961" />
<path d="M 72 29 L 76 25 L 72 32 Z" fill="#ffff8d" fill-opacity="0.501961" />
<path d="M 222 33 L 190 9 L 194 27 Z" fill="#f0f0f0" fill-opacity="0.501961" />
<path d="M 163 205 L 154 212 L 165 215 Z" fill="#e6e6e6" fill-opacity="0.501961" />
</g>
</svg>
