<svg version="1.1" width="400" height="477" xmlns="http://www.w3.org/2000/svg">
<rect x="0" y="0" width="400" height="477" fill="#ffffff" />
<g transform="scale(0.980392, 0.979466)">
<path d="M 135 502 L 423 130 L -16 30 Z" fill="#4f1d00" fill-opacity="0.501961" />
<path d="M 161 468 L 294 476 L 384 183 Z" fill="#8e5414" fill-opacity="0.501961" />
<path d="M 268 -16 L 423 71 L 192 479 Z" fill="#c8a771" fill-opacity="0.501961" />
<path d="M -14 115 L 142 502 L 253 201 Z" fill="#785c38" fill-opacity="0.501961" />
<path d="M 28 39 L 175 73 L 105 3 Z" fill="#7a4d0b" fill-opacity="0.501961" />
<path d="M 319 -11 L 192 134 L 133 -16 Z" fill="#ffffff" fill-opacity="0.501961" />
<path d="M 175 480 L 219 341 L 99 363 Z" fill="#633c2b" fill-opacity="0.501961" />
<path d="M 325 387 L 423 86 L 258 34 Z" fill="#ccb18c" fill-opacity="0.501961" />
<path d="M -16 40 L 2 160 L 30 -16 Z" fill="#ffffff" fill-opacity="0.501961" />
<path d="M 102 401 L 160 502 L 0 441 Z" fill="#ffffff" fill-opacity="0.501961" />
<path d="M 23 194 L 301 57 L 79 365 Z" fill="#9f8869" fill-opacity="0.501961" />
<path d="M 161 92 L 244 101 L 291 -16 Z" fill="#ffffff" fill-opacity="0.501961" />
<path d="M 387 180 L 402 31 L 422 129 Z" fill="#ffffff" fill-opacity="0.501961" />
<path d="M 189 351 L 398 49 L 311 8 Z" fill="#c5a985" fill-opacity="0.501961" />
<path d="M 1 108 L 130 13 L 90 387 Z" fill="#998160" fill-opacity="0.501961" />
<path d="M 188 502 L 71 473 L 259 469 Z" fill="#feffff" fill-opacity="0.501961" />
<path d="M -16 265 L -1 100 L 29 226 Z" fill="#ffffff" fill-opacity="0.501961" />
<path d="M 275 148 L 226 348 L 295 360 Z" fill="#dbc098" fill-opacity="0.501961" />
<path d="M 206 133 L 241 180 L 183 320 Z" fill="#6b5538" fill-opacity="0.501961" />
<path d="M -12 16 L -16 106 L 43 20 Z" fill="#ffffff" fill-opacity="0.501961" />
<path d="M 311 379 L 209 336 L 154 485 Z" fill="#a8896f" fill-opacity="0.501961" />
<path d="M 198 152 L 207 45 L 163 34 Z" fill="#ffffff" fill-opacity="0.501961" />
<path d="M 40 25 L 108 3 L 180 69 Z" fill="#c9b18b" fill-opacity="0.501961" />
<path d="M 299 484 L 330 336 L 192 454 Z" fill="#cdae8c" fill-opacity="0.501961" />
<path d="M 122 371 L 182 411 L 195 336 Z" fill="#4d2c25" fill-opacity="0.501961" />
<path d="M 246 88 L 299 105 L 280 26 Z" fill="#b29774" fill-opacity="0.501961" />
<path d="M 131 469 L 217 466 L 96 358 Z" fill="#8b6551" fill-opacity="0.501961" />
<path d="M 64 1 L 226 44 L 358 -1 Z" fill="#ffffff" fill-opacity="0.501961" />
<path d="M 405 124 L 351 21 L 349 307 Z" fill="#d2b892" fill-opacity="0.501961" />
<path d="M 12 59 L 171 222 L 6 124 Z" fill="#a89171" fill-opacity="0.501961" />
<path d="M 186 191 L 59 13 L 177 85 Z" fill="#b8a076" fill-opacity="0.501961" />
<path d="M 303 428 L 347 300 L 349 367 Z" fill="#fdf5e6" fill-opacity="0.501961" />
<path d="M 106 385 L 117 423 L 80 367 Z" fill="#bfb4bf" fill-opacity="0.501961" />
<path d="M 404 55 L 423 110 L 398 176 Z" fill="#ffffff" fill-opacity="0.501961" />
<path d="M 160 278 L 63 301 L 10 147 Z" fill="#8a705a" fill-opacity="0.501961" />
<path d="M 286 -16 L 245 96 L 174 78 Z" fill="#ffffff" fill-opacity="0.501961" />
<path d="M -13 128 L 17 195 L 3 78 Z" fill="#ffffff" fill-opacity="0.501961" />
<path d="M 101 399 L 39 401 L 145 502 Z" fill="#ffffff" fill-opacity="0.501961" />
<path d="M 59 17 L 5 103 L 138 48 Z" fill="#a68f6d" fill-opacity="0.501961" />
<path d="M 236 95 L 218 196 L 208 93 Z" fill="#b69360" fill-opacity="0.501961" />
<path d="M 170 463 L 206 470 L 143 479 Z" fill="#bdb4c8" fill-opacity="0.501961" />
<path d="M 1 15 L 38 -9 L 0 95 Z" fill="#ffffff" fill-opacity="0.501961" />
<path d="M 225 465 L 272 462 L 301 483 Z" fill="#a0766b" fill-opacity="0.501961" />
<path d="M 314 311 L 289 263 L 333 290 Z" fill="#96795d" fill-opacity="0.501961" />
<path d="M 330 236 L 338 196 L 293 235 Z" fill="#8e7862" fill-opacity="0.501961" />
<path d="M 321 49 L 353 43 L 373 126 Z" fill="#b19979" fill-opacity="0.501961" />
<path d="M 250 361 L 218 368 L 177 347 Z" fill="#684836" fill-opacity="0.501961" />
<path d="M 88 470 L 185 480 L 129 502 Z" fill="#ffffff" fill-opacity="0.501961" />
<path d="M 196 223 L 143 103 L 19 166 Z" fill="#a68e70" fill-opacity="0.501961" />
<path d="M 96 6 L 186 114 L 146 27 Z" fill="#d7bf96" fill-opacity="0.501961" />
<path d="M 333 376 L 268 358 L 342 303 Z" fill="#dabd95" fill-opacity="0.501961" />
<path d="M 164 45 L 190 124 L 239 37 Z" fill="#ffffff" fill-opacity="0.501961" />
<path d="M 324 160 L 256 143 L 273 79 Z" fill="#d5bd98" fill-opacity="0.501961" />
<path d="M 253 246 L 145 229 L 138 272 Z" fill="#7c6148" fill-opacity="0.501961" />
<path d="M 206 156 L 162 113 L 167 63 Z" fill="#c7b591" fill-opacity="0.501961" />
<path d="M 253 152 L 212 186 L 202 103 Z" fill="#967952" fill-opacity="0.501961" />
<path d="M 54 21 L 8 64 L 72 89 Z" fill="#b9a47d" fill-opacity="0.501961" />
<path d="M 84 135 L 8 139 L 14 167 Z" fill="#86715a" fill-opacity="0.501961" />
<path d="M 200 274 L 197 231 L 217 196 Z" fill="#493d34" fill-opacity="0.501961" />
<path d="M 105 324 L 88 375 L 64 287 Z" fill="#846552" fill-opacity="0.501961" />
<path d="M 38 251 L 61 309 L 57 273 Z" fill="#a7a09d" fill-opacity="0.501961" />
<path d="M 270 70 L 257 63 L 247 95 Z" fill="#927a5f" fill-opacity="0.501961" />
<path d="M 209 247 L 265 265 L 233 175 Z" fill="#9e8463" fill-opacity="0.501961" />
<path d="M 338 232 L 301 85 L 344 146 Z" fill="#ac9378" fill-opacity="0.501961" />
<path d="M -16 12 L 62 11 L -2 71 Z" fill="#ffffff" fill-opacity="0.501961" />
<path d="M 375 30 L 419 25 L 423 103 Z" fill="#ffffff" fill-opacity="0.501961" />
<path d="M 160 373 L 144 475 L 123 455 Z" fill="#88634c" fill-opacity="0.501961" />
<path d="M 222 352 L 184 340 L 222 247 Z" fill="#a88b65" fill-opacity="0.501961" />
<path d="M 94 394 L 59 307 L 37 349 Z" fill="#ffffff" fill-opacity="0.501961" />
<path d="M 81 308 L 153 332 L 141 281 Z" fill="#ab8e6d" fill-opacity="0.501961" />
<path d="M 56 64 L 112 59 L 78 49 Z" fill="#755f47" fill-opacity="0.501961" />
<path d="M 208 201 L 202 110 L 191 156 Z" fill="#929fa2" fill-opacity="0.501961" />
<path d="M 9 73 L 7 100 L 60 109 Z" fill="#8e7a5c" fill-opacity="0.501961" />
<path d="M 192 370 L 266 355 L 308 381 Z" fill="#a48066" fill-opacity="0.501961" />
<path d="M 256 64 L 394 62 L 286 23 Z" fill="#d2b890" fill-opacity="0.501961" />
<path d="M 388 352 L 316 431 L 316 382 Z" fill="#ffffff" fill-opacity="0.501961" />
<path d="M 379 113 L 381 219 L 402 137 Z" fill="#e6caa0" fill-opacity="0.501961" />
<path d="M 23 108 L 70 121 L 49 133 Z" fill="#cfb38e" fill-opacity="0.501961" />
<path d="M 178 436 L 149 366 L 187 320 Z" fill="#624130" fill-opacity="0.501961" />
<path d="M 64 -16 L 146 6 L 52 14 Z" fill="#ffffff" fill-opacity="0.501961" />
<path d="M 0 130 L 14 44 L -16 -16 Z" fill="#ffffff" fill-opacity="0.501961" />
<path d="M 232 12 L 346 16 L 254 -16 Z" fill="#ffffff" fill-opacity="0.501961" />
<path d="M 270 464 L 299 480 L 318 382 Z" fill="#dbbe9a" fill-opacity="0.501961" />
<path d="M 249 469 L 201 469 L 289 494 Z" fill="#ffffff" fill-opacity="0.501961" />
<path d="M 35 35 L 75 12 L 177 81 Z" fill="#ad9578" fill-opacity="0.501961" />
<path d="M 305 263 L 302 240 L 332 256 Z" fill="#e4cfa8" fill-opacity="0.501961" />
<path d="M 422 122 L 406 67 L 398 179 Z" fill="#ffffff" fill-opacity="0.501961" />
<path d="M 6 146 L -16 225 L 28 223 Z" fill="#ffffff" fill-opacity="0.501961" />
<path d="M 234 96 L 131 20 L 307 -15 Z" fill="#ffffff" fill-opacity="0.501961" />
<path d="M 265 143 L 311 122 L 316 67 Z" fill="#b49879" fill-opacity="0.501961" />
</g>
</svg>
