<svg version="1.1" width="332" height="400" xmlns="http://www.w3.org/2000/svg">
<rect x="0" y="0" width="332" height="400" fill="#ffffff" />
<g transform="scale(1.56604, 1.5625)">
<path d="M 128 83 L 105 173 L 40 238 Z" fill="#cf7d3b" fill-opacity="0.501961" />
<path d="M 59 79 L 59 -10 L 105 152 Z" fill="#d18f56" fill-opacity="0.501961" />
<path d="M 179 23 L 157 18 L 128 91 Z" fill="#d5883f" fill-opacity="0.501961" />
<path d="M 106 211 L 130 246 L 107 165 Z" fill="#d36f1d" fill-opacity="0.501961" />
<path d="M -16 14 L 122 249 L 59 19 Z" fill="#ffffff" fill-opacity="0.501961" />
<path d="M 69 6 L 54 13 L 74 59 Z" fill="#a45015" fill-opacity="0.501961" />
<path d="M 96 129 L 69 195 L 101 153 Z" fill="#c45f11" fill-opacity="0.501961" />
<path d="M 60 223 L 117 226 L 95 156 Z" fill="#ffffff" fill-opacity="0.501961" />
<path d="M 47 238 L 75 191 L 52 213 Z" fill="#af4b06" fill-opacity="0.501961" />
<path d="M 193 -16 L 134 264 L 103 144 Z" fill="#ffffff" fill-opacity="0.501961" />
<path d="M 123 104 L 130 72 L 153 49 Z" fill="#dc8537" fill-opacity="0.501961" />
<path d="M 8 40 L 61 20 L 93 149 Z" fill="#ffffff" fill-opacity="0.501961" />
<path d="M 78 63 L 96 120 L 77 91 Z" fill="#c86919" fill-opacity="0.501961" />
<path d="M 95 143 L 108 165 L 106 185 Z" fill="#c05213" fill-opacity="0.501961" />
<path d="M 173 25 L 159 19 L 163 35 Z" fill="#ae5419" fill-opacity="0.501961" />
</g>
</svg>
