<svg version="1.1" width="400" height="400" xmlns="http://www.w3.org/2000/svg">
<rect x="0" y="0" width="400" height="400" fill="#ffffff" />
<g transform="scale(1.33333, 1.33333)">
<path d="M 56 315 L 176 -16 L 283 174 Z" fill="#9a865c" fill-opacity="0.501961" />
<path d="M 6 315 L 263 187 L 232 -16 Z" fill="#c4b8a0" fill-opacity="0.501961" />
<path d="M 130 13 L 235 11 L 142 218 Z" fill="#b5a78e" fill-opacity="0.501961" />
<path d="M 251 171 L 111 315 L 1 257 Z" fill="#c3b79e" fill-opacity="0.501961" />
<path d="M 137 162 L 132 6 L 66 244 Z" fill="#ffffff" fill-opacity="0.501961" />
<path d="M 313 91 L 311 309 L 247 121 Z" fill="#ffffff" fill-opacity="0.501961" />
<path d="M 243 196 L 127 9 L 247 39 Z" fill="#cabfa6" fill-opacity="0.501961" />
<path d="M 129 67 L 156 145 L 148 16 Z" fill="#a0937a" fill-opacity="0.501961" />
<path d="M 115 211 L 26 255 L 58 297 Z" fill="#b2a791" fill-opacity="0.501961" />
<path d="M 136 148 L 88 226 L 127 29 Z" fill="#ffffff" fill-opacity="0.501961" />
<path d="M 178 19 L 107 -11 L 265 -14 Z" fill="#ffffff" fill-opacity="0.501961" />
<path d="M 249 108 L 73 315 L 264 187 Z" fill="#dad0b9" fill-opacity="0.501961" />
<path d="M 228 117 L 186 120 L 210 125 Z" fill="#563a1f" fill-opacity="0.501961" />
<path d="M 221 59 L 200 58 L 240 49 Z" fill="#533512" fill-opacity="0.501961" />
<path d="M 24 231 L 43 315 L -16 275 Z" fill="#ffffff" fill-opacity="0.501961" />
<path d="M 207 57 L 144 19 L 244 1 Z" fill="#dfd7c0" fill-opacity="0.501961" />
<path d="M 125 305 L -5 315 L 5 282 Z" fill="#ffffff" fill-opacity="0.501961" />
<path d="M 78 304 L 147 280 L 194 203 Z" fill="#c5b89e" fill-opacity="0.501961" />
<path d="M 174 62 L 140 64 L 159 69 Z" fill="#644c30" fill-opacity="0.501961" />
<path d="M 180 131 L 195 139 L 155 136 Z" fill="#7e6646" fill-opacity="0.501961" />
<path d="M 238 114 L 221 120 L 239 120 Z" fill="#402209" fill-opacity="0.501961" />
<path d="M 123 178 L 138 102 L 59 241 Z" fill="#ffffff" fill-opacity="0.501961" />
<path d="M 38 288 L 31 265 L 93 296 Z" fill="#aea38a" fill-opacity="0.501961" />
<path d="M 304 173 L 285 210 L 252 122 Z" fill="#ffffff" fill-opacity="0.501961" />
<path d="M 203 120 L 174 128 L 155 120 Z" fill="#7b664e" fill-opacity="0.501961" />
<path d="M 298 314 L 237 259 L 38 315 Z" fill="#ffffff" fill-opacity="0.501961" />
<path d="M 194 70 L 135 79 L 132 63 Z" fill="#9e8e76" fill-opacity="0.501961" />
<path d="M 149 116 L 151 110 L 137 115 Z" fill="#483422" fill-opacity="0.501961" />
<path d="M 190 10 L 202 -16 L 119 11 Z" fill="#ffffff" fill-opacity="0.501961" />
<path d="M 137 151 L 90 223 L 204 177 Z" fill="#c9c0ad" fill-opacity="0.501961" />
<path d="M 243 90 L 159 103 L 212 110 Z" fill="#a99a83" fill-opacity="0.501961" />
<path d="M 178 103 L 242 117 L 252 92 Z" fill="#d6cebb" fill-opacity="0.501961" />
<path d="M 178 124 L 146 131 L 207 134 Z" fill="#dcd3bc" fill-opacity="0.501961" />
<path d="M 145 137 L 162 135 L 130 130 Z" fill="#635038" fill-opacity="0.501961" />
<path d="M -16 274 L 43 315 L 21 225 Z" fill="#ffffff" fill-opacity="0.501961" />
<path d="M 230 116 L 200 110 L 173 121 Z" fill="#e4dcc7" fill-opacity="0.501961" />
<path d="M 131 94 L 210 118 L 158 122 Z" fill="#c7bda8" fill-opacity="0.501961" />
<path d="M 177 109 L 162 109 L 165 113 Z" fill="#564024" fill-opacity="0.501961" />
<path d="M 223 107 L 248 100 L 240 107 Z" fill="#7e6952" fill-opacity="0.501961" />
<path d="M 211 68 L 232 54 L 184 67 Z" fill="#e9e2cd" fill-opacity="0.501961" />
<path d="M 195 59 L 124 60 L 214 6 Z" fill="#d2c9b4" fill-opacity="0.501961" />
<path d="M 102 48 L 125 -16 L 138 49 Z" fill="#ffffff" fill-opacity="0.501961" />
<path d="M 202 107 L 222 105 L 212 109 Z" fill="#553f2b" fill-opacity="0.501961" />
<path d="M 195 123 L 248 124 L 223 132 Z" fill="#e8e1cd" fill-opacity="0.501961" />
<path d="M 132 19 L 167 14 L 146 61 Z" fill="#beb298" fill-opacity="0.501961" />
<path d="M 139 88 L 150 86 L 140 85 Z" fill="#160000" fill-opacity="0.501961" />
<path d="M 187 107 L 192 110 L 177 110 Z" fill="#351b05" fill-opacity="0.501961" />
<path d="M 78 235 L 134 157 L 133 78 Z" fill="#ffffff" fill-opacity="0.501961" />
<path d="M 240 90 L 244 94 L 226 94 Z" fill="#5c4525" fill-opacity="0.501961" />
<path d="M 168 275 L 195 227 L 244 200 Z" fill="#ffffff" fill-opacity="0.501961" />
<path d="M 235 119 L 245 112 L 245 119 Z" fill="#796244" fill-opacity="0.501961" />
<path d="M 98 301 L 32 248 L 93 224 Z" fill="#c6bda9" fill-opacity="0.501961" />
<path d="M 219 125 L 226 120 L 202 120 Z" fill="#644a29" fill-opacity="0.501961" />
<path d="M 10 286 L 24 315 L 89 298 Z" fill="#ffffff" fill-opacity="0.501961" />
<path d="M 166 76 L 159 72 L 181 71 Z" fill="#6e5941" fill-opacity="0.501961" />
<path d="M 161 65 L 138 71 L 168 72 Z" fill="#e0d5bf" fill-opacity="0.501961" />
<path d="M 187 92 L 242 80 L 233 58 Z" fill="#bdaf96" fill-opacity="0.501961" />
<path d="M 249 113 L 254 101 L 213 114 Z" fill="#eae5d3" fill-opacity="0.501961" />
<path d="M 191 129 L 243 134 L 253 116 Z" fill="#ded6c1" fill-opacity="0.501961" />
<path d="M 157 149 L 132 133 L 151 154 Z" fill="#9b8a70" fill-opacity="0.501961" />
</g>
</svg>
